<svg width="225" height="102" viewBox="0 0 225 102" fill="none" xmlns="http://www.w3.org/2000/svg">
<path d="M194.036 100.517C195.383 94.6283 196.095 88.494 196.095 82.1916C196.095 37.4662 160.237 1.20898 116.002 1.20898C71.7681 1.20898 35.9092 37.4662 35.9092 82.1916C35.9092 88.4133 36.6031 94.471 37.9169 100.29" fill="#FFE7CC"/>
<path d="M169.588 100.494C171.486 94.7771 172.515 88.6569 172.515 82.2938C172.515 50.7363 147.214 25.1538 116.003 25.1538C84.7917 25.1538 59.4902 50.7363 59.4902 82.2938C59.4902 88.6654 60.5217 94.7935 62.4249 100.517" fill="#FFF0DF"/>
<path d="M25.71 100.516H204.687" stroke="#CC6D00" stroke-width="0.60452" stroke-linecap="round"/>
<path d="M57.5915 97.4788C75.0646 97.4758 101.087 97.1174 107.245 97.0489C108.045 97.04 108.804 96.6977 109.339 96.1025L110.722 94.5633C110.754 94.5278 110.773 94.4828 110.776 94.4354L111.039 90.7397C111.526 83.8733 117.3 78.5882 124.183 78.7097L125.525 78.7334C131.841 78.8449 136.903 83.9968 136.903 90.3137L136.691 93.8435C136.599 95.3892 137.77 96.7203 139.315 96.8253L141.595 96.9802C143.255 97.093 144.651 95.752 144.605 94.0892L144.477 89.4708V80.015C144.477 79.3192 144.22 78.6479 143.755 78.1304L142.567 76.8082C142.328 76.5421 142.032 76.3321 141.76 76.0997C140.794 75.2736 139.691 73.4887 135.865 72.6373C131.901 71.755 114.807 68.356 111.373 67.6742C110.971 67.5943 110.608 67.4357 110.276 67.1946C107.578 65.2362 94.6283 55.8901 90.6992 54.0681C86.1545 51.9608 51.6912 51.9608 45.6317 53.2252C40.9994 54.1918 30.4649 60.6234 25.1322 64.1349C24.6667 64.4415 24.1264 64.6047 23.569 64.6047H20.6364C20.3504 64.6047 23.191 73.6163 24.8908 78.8807C25.0791 79.464 25.0727 80.0908 24.8724 80.6702L23.7496 83.9191C23.4587 84.7606 22.7875 85.4153 21.939 85.6851L20.6276 86.1021C19.1612 86.5684 18.3052 88.1354 18.568 89.6515C18.6261 89.987 18.6849 90.3489 18.7428 90.7354C18.9489 92.112 19.5175 93.5666 20.0189 94.6213C20.3794 95.3795 21.1166 95.8667 21.9463 95.9941L31.3633 97.4395C31.4979 97.4602 31.6192 97.3561 31.6192 97.2199V92.6538C31.6192 85.5423 37.3842 79.7774 44.4956 79.7774C51.607 79.7774 57.372 85.5423 57.372 92.6538V97.2562C57.372 97.3791 57.4685 97.4788 57.5915 97.4788Z" fill="#FF8800" stroke="#CD6D00" stroke-width="0.352455"/>
<path d="M91.7351 54.9585H90.8525C90.8525 54.9585 95.8934 59.2291 98.7952 61.8334C102.21 64.8979 106.738 70.6726 106.738 70.6726C106.738 70.6726 108.415 69.8638 109.385 68.7083C110.13 67.8221 109.385 66.744 109.385 66.744L91.7351 54.9585Z" fill="white"/>
<path d="M109.42 85.52C108.632 87.0069 108.133 88.8841 109.685 88.8841H111.058C111.932 88.8841 112.648 88.2966 112.911 87.3692C113.32 85.9313 114.324 84.4229 112.969 84.4229H111.147C110.437 84.4229 109.781 84.8401 109.42 85.52Z" fill="#FFCF99" stroke="#CD6D00" stroke-width="0.352455"/>
<path d="M77.6141 74.6023H104.972C102.851 69.882 92.617 58.8883 84.635 56.5777L72.319 55.9419L77.6141 74.6023Z" fill="white"/>
<path d="M47.6084 73.6202L68.7889 74.6023V69.6917L66.1414 55.9419C64.879 56.0824 58.8822 56.5777 54.3376 58.2635C49.793 59.9494 48.7446 60.5703 47.6084 61.8347V73.6202Z" fill="white"/>
<path d="M44.9609 73.6202C44.9609 73.6202 43.2546 73.2494 42.3133 72.6381C41.1971 71.9132 39.9463 70.0645 39.9463 70.0645C39.9463 69.053 43.6985 64.0812 44.9609 62.8168V73.6202Z" fill="white"/>
<path d="M69.668 75.5835L69.668 70.8693L57.947 70.8693L52.0176 69.6907L52.0176 74.4049L69.668 75.5835Z" fill="#FFAB4C" stroke="#CC6D00" stroke-width="0.440568"/>
<path d="M44.9623 63.799C44.2447 64.6583 40.2817 68.403 40.519 69.5959C40.5321 69.6619 40.5595 69.7241 40.5788 69.7886L41.4323 72.6382L43.5357 73.4183C43.8844 73.5477 44.1857 73.8175 44.5128 73.9948C46.0778 74.8427 51.1337 75.4071 51.9326 74.8938C52.6052 74.4616 52.9625 73.6068 52.8262 72.7559L51.9819 67.4845C51.14 61.8346 46.4066 62.0694 44.9623 63.799Z" fill="#FFCF99" stroke="#CD6D00" stroke-width="0.352455"/>
<path d="M102.321 74.6021L78.4932 74.602L76.7282 70.6735L94.3786 70.6735L99.6737 70.6735L102.321 74.6021Z" fill="#FFAB4C" stroke="#CC6D00" stroke-width="0.440568"/>
<path d="M97.9079 75.5838H105.851L104.086 70.6731L102.036 67.9111V69.2021C102.036 70.4109 100.614 71.0592 99.7012 70.2665L97.9079 68.7089L97.0254 70.6731L99.759 72.5141C100.711 73.1551 100.539 74.6043 99.4634 75.0047L97.9079 75.5838Z" fill="#CC6D00"/>
<path d="M97.654 67.585L96.9931 73.0187C96.8928 73.843 96.2884 74.3944 95.5982 74.2904C94.908 74.1864 94.4571 73.4761 94.5573 72.6518L95.2183 67.2181C95.3186 66.3938 95.9229 65.8424 96.6132 65.9464C97.3034 66.0504 97.7543 66.7607 97.654 67.585Z" fill="#FFAB4C" stroke="#CC6D00" stroke-width="0.440568"/>
<path d="M75.1287 68.4361C74.7419 68.8994 74.65 69.5611 74.8983 70.0966L77.7844 76.3212C78.1238 77.0531 78.9717 77.3016 79.6476 76.8674L80.3556 76.4125C80.8623 76.0869 81.1369 75.4577 81.039 74.8463L79.6852 66.3938C79.4962 65.2141 78.1339 64.8375 77.369 65.7534L75.1287 68.4361Z" fill="#FFCF99" stroke="#CD6D00" stroke-width="0.352455"/>
<path d="M53.828 65.383L53.7404 68.9778L56.0328 71.4278L56.6541 64.8239L53.828 65.383Z" fill="#B55A00"/>
<path d="M58.1393 65.751C57.5798 65.6193 56.0886 65.751 56.5236 65.8175C57.2076 66.0169 56.9587 65.884 57.5798 66.0169C57.8287 66.0833 58.0149 66.0833 58.1393 66.0833C57.2076 68.2076 55.9025 68.0747 54.8452 67.2119C53.9125 66.4821 53.2913 64.9547 52.918 62.5658L54.8452 60.1758L57.5798 60.3319L58.5126 64.0255L57.8915 64.5572C58.0149 65.0212 58.0766 65.4199 58.1393 65.751Z" fill="#B55A00"/>
<path d="M57.6543 60.744C57.263 60.744 54.7194 62.2279 54.7194 62.2279L54.7194 63.7117L54.7194 65.1955C54.7194 65.6901 52.7628 66.1847 52.2737 65.6901C50.317 63.7117 51.2954 63.0522 51.2954 62.2279C51.4584 61.8981 51.7845 61.1397 51.7845 60.744C51.7845 60.3484 52.7628 59.59 53.252 59.2602C54.8825 59.4251 57.7521 58.271 58.1435 58.271C58.6326 58.271 58.6326 60.744 58.1435 60.744L57.6543 60.744Z" fill="#683808"/>
<ellipse cx="53.8504" cy="64.9423" rx="0.932443" ry="0.953002" fill="#B55A00"/>
<path d="M59.0844 74.8692C59.4589 74.4199 58.2125 68.3422 54.5466 68.3789L53.8259 68.9996C51.1462 71.6098 52.6245 73.7179 52.5428 78.5372L57.2566 78.3663C57.4227 77.5123 58.4519 75.628 59.0844 74.8692Z" fill="white" stroke="#CC6D00" stroke-width="0.342002"/>
<path d="M59.0596 71.2033L58.2223 74.3664L55.9895 73.7019L57.2919 69.0635L59.0596 71.2033Z" fill="black"/>
<path d="M51.5528 76.1269L54.7369 75.2015C55.1766 77.1142 55.318 77.9623 55.8391 79.5999L52.6815 79.6871C51.9732 77.9087 52.2097 78.2533 51.5528 76.1269Z" fill="#B55A00"/>
<path d="M52.4004 75.8206C52.4004 75.8206 55.8919 76.261 57.1036 75.8206C56.6333 72.2079 56.0503 68.3919 54.5407 68.3795C52.255 68.9613 50.7784 72.1475 52.4004 75.8206Z" fill="white" stroke="#CC6D00" stroke-width="0.342002"/>
<path d="M89.0339 76.8208C89.0339 76.8208 85.4119 76.8208 83.4392 76.8208C83.4392 76.8208 79.1874 70.2087 83.8047 68.6909L86.4097 69.7143C86.8483 70.4525 89.2517 71.1847 89.5933 72.7322C87.4535 76.1745 89.0339 76.8208 89.0339 76.8208Z" fill="#89BAF3" stroke="#CC6D00" stroke-width="0.342002"/>
<path d="M86.5241 68.8252L82.8027 76.0818H85.5938L88.3848 71.5464L86.5241 68.8252Z" fill="black"/>
<path d="M84.8635 71.2941C85.4706 72.4962 87.5333 72.6144 88.1412 72.9385C88.9152 72.9385 89.1479 73.6868 92.0746 72.4134L94.0867 73.1519L95.9012 72.6599V70.4833L94.3571 70.8395L93.4831 70.3001L94.4891 69.8775V69.0322L92.477 69.8775L92.258 70.8395C90.9589 71.2088 90.9518 70.7773 88.6612 70.8699C88.3341 70.5466 86.9921 70.111 85.8069 69.763L84.8635 71.2941ZM81.7601 69.7146L81.2949 67.0167L83.059 66.6445L83.896 68.495L81.7601 69.7146Z" fill="#B55A00"/>
<path d="M86.2852 73.9003C86.2852 73.9003 87.7694 71.3874 88.2039 70.0899C85.0417 68.207 82.9369 67.8333 81.9252 69.0879C80.8073 71.3268 82.2853 72.9582 86.2852 73.9003Z" fill="#89BAF3" stroke="#CC6D00" stroke-width="0.342002"/>
<path d="M79.0038 63.6895C79.8163 65.7974 80.6883 66.9595 81.7604 67.3885C83.0755 67.8976 84.7375 66.3652 84.5239 65.0891C84.8288 64.8617 85.6193 64.3762 85.504 64.0975C85.4101 63.8705 84.6005 63.5381 84.5586 63.1711L84.9605 60.6356L83.635 59.4238L80.5625 60.9786L79.0038 63.6895Z" fill="#B55A00"/>
<path d="M81.0278 63.9136C81.0099 64.9197 80.7874 65.5973 80.3627 65.8214C77.8372 65.907 77.882 63.3932 77.9044 62.1354L77.9044 62.1352C77.9268 60.8775 78.9761 59.13 79.8547 58.9256C83.0228 58.1888 84.2743 58.7745 84.8833 60.0109C85.7002 61.6694 84.8497 61.8975 84.2183 61.9191C83.7132 61.9363 82.6648 61.3198 82.6648 61.3198C82.6648 61.3198 82.3205 62.215 82.2906 63.8704C82.2792 64.4991 81.0502 62.656 81.0278 63.9136Z" fill="#47280D"/>
<path d="M78.8769 66.4519C79.2413 67.6541 78.8425 68.1482 78.8769 69.5086C78.8707 70.5675 79.3938 71.4624 80.0915 71.7971C79.5182 72.0136 79.0047 71.9249 78.4482 71.8895C77.8776 71.753 77.3633 71.6652 76.8649 71.3245C76.041 70.7906 75.5903 69.6933 75.5125 68.3828C75.2445 67.1032 75.1454 66.221 75.2445 64.9634C75.5154 61.526 77.4662 60.4606 78.7797 60.7769C79.72 61.0033 78.6812 65.7519 78.8769 66.4519Z" fill="#47280D"/>
<path d="M78.2814 70.6836C77.8423 70.0402 77.6631 69.0865 77.6833 68.1269C77.6868 67.421 77.7778 66.6127 77.7821 65.9059C77.7473 65.3047 77.7822 64.8708 77.1018 64.1265C77.2022 64.1226 76.9589 64.181 77.1018 64.1265C74.8691 63.6613 76.594 66.3905 76.6293 67.3979C76.6831 68.1533 76.7218 68.8068 76.9177 69.5085C77.0995 70.1092 77.3816 70.706 77.8368 71.0983C78.0071 71.2449 78.1641 71.2914 78.3343 71.4381C78.7613 71.63 79.4026 71.9161 79.9327 71.7511C79.7051 71.555 79.362 71.6147 79.0912 71.4701C78.764 71.277 78.48 71.0323 78.2814 70.6836Z" fill="#593012"/>
<path d="M77.7096 70.5452C77.5254 70.2992 77.4274 69.9484 77.3295 69.5975C76.9105 67.9946 78.558 64.5084 76.3566 64.3113C76.3134 64.3629 76.0228 64.3113 76.0228 64.3113C75.0569 65.6963 75.5257 67.7783 75.732 69.2853C75.8406 70.0893 76.0372 70.7902 76.5911 71.1786C76.8187 71.3747 77.0756 71.4199 77.3464 71.5645C78.1305 71.796 79.1422 72.2237 80.0304 71.7472C79.1193 71.3174 78.2335 71.4392 77.7096 70.5452Z" fill="#6B3918"/>
<ellipse cx="0.827308" cy="1.21214" rx="0.827308" ry="1.21214" transform="matrix(0.990044 -0.0338426 -0.017984 1.00958 80.125 62.7935)" fill="#B55A00"/>
<path fill-rule="evenodd" clip-rule="evenodd" d="M67.9084 53.9766L71.4135 69.6421L72.321 90.2938L58.2953 89.4508C58.2596 89.3173 58.2216 89.1717 58.1808 89.0153C57.2779 85.5521 54.9978 76.8069 44.8177 76.8069C42.3153 76.5655 39.5411 73.6923 38.7852 71.6549C38.6583 71.3129 38.5186 69.8238 38.4336 69.6421C40.207 64.725 43.7537 54.9587 67.9084 53.9766ZM47.6104 73.6191L68.7909 74.6013V69.6907L66.1434 55.9408C64.9611 56.0813 57.586 56.5767 53.3299 58.2626C49.0738 59.9484 48.6744 60.5692 47.6104 61.8336V73.6191ZM44.8177 73.6191C44.8177 73.6191 43.1522 73.3171 42.3153 72.637C41.3118 71.8215 40.5503 69.6906 40.5503 69.6906C40.5503 68.6791 43.6355 65.0622 44.8177 63.7979V73.6191Z" fill="#FF8800"/>
<path fill-rule="evenodd" clip-rule="evenodd" d="M76.7336 90.2938L105.857 90.3153C107.748 85.2578 106.739 74.6013 106.739 74.6013C106.739 74.6013 101.883 68.2911 98.7966 64.78C95.3712 60.8833 90.6058 56.352 89.9714 55.9408C88.6709 55.0979 87.3238 54.9587 87.3238 54.9587L71.4135 54.0479L74.6055 69.6421L76.7336 90.2938ZM77.6161 74.6013L103.209 74.6013C101.223 69.8809 93.5015 59.8694 85.7913 56.5767L73.1869 55.7338L76.9353 69.6907L77.6161 74.6013Z" fill="#FF8800"/>
<path fill-rule="evenodd" clip-rule="evenodd" d="M67.9084 53.9766L71.4135 69.6421L72.321 90.2938L58.2953 89.4508C58.2596 89.3173 58.2216 89.1717 58.1808 89.0153C57.2779 85.5521 54.9978 76.8069 44.8177 76.8069C42.3153 76.5655 39.5411 73.6923 38.7852 71.6549C38.6583 71.3129 38.5186 69.8238 38.4336 69.6421C40.207 64.725 43.7537 54.9587 67.9084 53.9766ZM47.6104 73.6191L68.7909 74.6013V69.6907L66.1434 55.9408C64.9611 56.0813 57.586 56.5767 53.3299 58.2626C49.0738 59.9484 48.6744 60.5692 47.6104 61.8336V73.6191ZM44.8177 73.6191C44.8177 73.6191 43.1522 73.3171 42.3153 72.637C41.3118 71.8215 40.5503 69.6906 40.5503 69.6906C40.5503 68.6791 43.6355 65.0622 44.8177 63.7979V73.6191Z" stroke="#CD6D00" stroke-width="0.352455" stroke-linejoin="round"/>
<path fill-rule="evenodd" clip-rule="evenodd" d="M76.7336 90.2938L105.857 90.3153C107.748 85.2578 106.739 74.6013 106.739 74.6013C106.739 74.6013 101.883 68.2911 98.7966 64.78C95.3712 60.8833 90.6058 56.352 89.9714 55.9408C88.6709 55.0979 87.3238 54.9587 87.3238 54.9587L71.4135 54.0479L74.6055 69.6421L76.7336 90.2938ZM77.6161 74.6013L103.209 74.6013C101.223 69.8809 93.5015 59.8694 85.7913 56.5767L73.1869 55.7338L76.9353 69.6907L77.6161 74.6013Z" stroke="#CD6D00" stroke-width="0.352455" stroke-linejoin="round"/>
<path d="M21.7652 74.2784C20.0919 74.2784 18.7354 72.9575 18.7354 71.3282C18.7354 69.6988 20.0919 68.3779 21.7652 68.3779C23.4385 68.3779 24.7949 69.6988 24.7949 71.3282C24.7949 72.9575 23.4385 74.2784 21.7652 74.2784Z" fill="#FFE7CC" stroke="#CC6D00" stroke-width="0.352455"/>
<path d="M136.754 89.8691C136.916 90.4538 137.433 90.8695 138.039 90.9014L144.083 91.2194C144.89 91.2618 145.567 90.6192 145.567 89.8115V88.6573C145.567 88.0821 145.218 87.5645 144.684 87.3496L137.622 84.5057C136.539 84.0695 135.426 85.0636 135.737 86.189L136.754 89.8691Z" fill="#FFCF99" stroke="#CD6D00" stroke-width="0.352455"/>
<path d="M56.4344 93.8172C56.4344 94.5958 57.0656 95.227 57.8443 95.227H110.623C111.402 95.227 112.033 94.5958 112.033 93.8172V93.0446C112.033 92.266 111.402 91.6348 110.623 91.6348L57.8443 91.6348C57.0656 91.6348 56.4344 92.266 56.4344 93.0446V93.8172Z" fill="#FFCF99" stroke="#CD6D00" stroke-width="0.352455"/>
<path d="M16.7142 89.8343C16.7142 90.4931 17.1705 91.0641 17.8131 91.2094L30.8788 94.164C31.7607 94.3634 32.5996 93.693 32.5996 92.7889V92.0875C32.5996 91.4287 32.1433 90.8577 31.5007 90.7124L18.435 87.7578C17.5532 87.5584 16.7142 88.2288 16.7142 89.1329V89.8343Z" fill="#FFCF99" stroke="#CD6D00" stroke-width="0.352455"/>
<path d="M142.763 83.4547C144.436 83.4547 145.793 82.1338 145.793 80.5044C145.793 78.8751 144.436 77.5542 142.763 77.5542C141.09 77.5542 139.733 78.8751 139.733 80.5044C139.733 82.1338 141.09 83.4547 142.763 83.4547Z" fill="#FFE7CC" stroke="#CC6D00" stroke-width="0.352455"/>
<path d="M21.0034 75.1225V67.5361H24.452C26.3319 67.5361 27.8203 69.2111 27.8203 71.3293C27.8203 73.4459 26.3319 75.1225 24.4507 75.1225H21.0034V75.1225Z" fill="#FFAB4C" stroke="#CC6D00" stroke-width="0.352455"/>
<path d="M143.238 84.5665V75.8008H138.804C136.387 75.8008 134.473 77.7362 134.473 80.1836C134.473 82.6293 136.387 84.5665 138.805 84.5665H143.238Z" fill="#FFAB4C" stroke="#CC6D00" stroke-width="0.352455"/>
<path d="M24.0389 75.1216H41.46" stroke="#CD6D00" stroke-width="0.352455"/>
<path d="M44.4912 76.8076H24.0405" stroke="#CD6D00" stroke-width="0.352455"/>
<path d="M33.4854 86.3868L23.7776 83.4404" stroke="#CD6D00" stroke-width="0.352455"/>
<path d="M135.348 77.5537L107.618 71.6556C108.501 71.6556 111.148 69.6913 111.148 67.7271" stroke="#CD6D00" stroke-width="0.352455" stroke-linejoin="round"/>
<path d="M125.084 100.373C119.966 100.373 115.785 96.197 115.785 91.0725C115.785 85.9491 119.967 81.7734 125.084 81.7734C130.203 81.7734 134.384 85.9491 134.384 91.0736C134.384 96.197 130.202 100.373 125.084 100.373V100.373ZM125.084 95.7548C127.643 95.7548 129.765 93.6659 129.765 91.0725C129.765 88.4791 127.643 86.3913 125.084 86.3913C122.525 86.3913 120.403 88.4802 120.403 91.0725C120.403 93.667 122.463 95.7548 125.084 95.7548Z" fill="#FFCF99" stroke="#CC6D00" stroke-width="0.440568"/>
<path d="M125.082 93.7301C126.549 93.7301 127.739 92.5405 127.739 91.073C127.739 89.6056 126.549 88.416 125.082 88.416C123.614 88.416 122.425 89.6056 122.425 91.073C122.425 92.5405 123.614 93.7301 125.082 93.7301Z" fill="#FFAB4C" stroke="#CC6D00" stroke-width="0.440568"/>
<path d="M44.5901 100.373C39.4722 100.373 35.291 96.197 35.291 91.0725C35.291 85.9491 39.4733 81.7734 44.5901 81.7734C49.709 81.7734 53.8902 85.9491 53.8902 91.0736C53.8902 96.197 49.7079 100.373 44.5901 100.373V100.373ZM44.5901 95.7548C47.149 95.7548 49.2711 93.6659 49.2711 91.0725C49.2711 88.4791 47.149 86.3913 44.5901 86.3913C42.0312 86.3913 39.9091 88.4802 39.9091 91.0725C39.9091 93.667 41.9692 95.7548 44.5901 95.7548Z" fill="#FFCF99" stroke="#CC6D00" stroke-width="0.440568"/>
<path d="M44.5877 93.7301C46.0551 93.7301 47.2447 92.5405 47.2447 91.073C47.2447 89.6056 46.0551 88.416 44.5877 88.416C43.1203 88.416 41.9307 89.6056 41.9307 91.073C41.9307 92.5405 43.1203 93.7301 44.5877 93.7301Z" fill="#FFAB4C" stroke="#CC6D00" stroke-width="0.440568"/>
<path fill-rule="evenodd" clip-rule="evenodd" d="M117.71 25.1282C123.315 22.7539 130.48 25.2246 133.108 31.4756C134.303 34.3567 134.28 37.5301 133.076 40.4133C131.857 43.2802 129.576 45.5183 126.66 46.696C117.195 50.5436 100.943 46.3876 100.265 46.2009C99.7638 46.0813 99.3632 45.72 99.1744 45.2642C98.9697 44.7921 99.0088 44.2582 99.2736 43.8244C99.4392 43.5512 101.177 40.6747 103.879 37.1789C103.962 37.0666 104.124 37.0524 104.236 37.151C104.942 37.7266 105.714 38.2221 106.518 38.6695C106.647 38.7359 106.678 38.882 106.595 39.0105C105.211 40.7904 104.089 42.4116 103.296 43.5837C107.935 44.549 118.868 46.3871 125.417 43.7171C129.783 41.9424 131.822 37.0295 130.078 32.7004C128.255 28.1921 123.091 26.4105 118.937 28.1231C116.249 29.2064 113.547 31.3745 111.15 33.7893C111.101 33.8534 111.004 33.8684 110.923 33.8512C109.937 33.5958 109.019 33.1309 108.233 32.4895C108.121 32.4071 108.107 32.245 108.205 32.1491C111.046 29.2217 114.24 26.5903 117.71 25.1282M108.376 15.8779C117.808 12.0136 134.011 16.2014 134.706 16.3559C135.191 16.4916 135.608 16.853 135.796 17.325C135.985 17.7808 135.946 18.3146 135.681 18.7485C135.532 19.0057 133.793 21.9145 131.092 25.3942C131.009 25.5065 130.863 25.5208 130.751 25.4384C130.045 24.8466 129.274 24.3349 128.468 23.9199C128.34 23.8535 128.293 23.6748 128.392 23.5789C129.759 21.7988 130.898 20.1778 131.675 18.9894C127.036 18.0241 116.135 16.1863 109.602 18.8566C105.269 20.6154 103.213 25.5443 104.974 29.8737C106.781 34.3817 111.928 36.1631 116.066 34.4665C118.755 33.367 121.44 31.2149 123.853 28.7841C123.918 28.7364 124 28.705 124.08 28.7223C125.066 28.9776 125.984 29.4425 126.754 30.0838C126.866 30.1661 126.864 30.328 126.766 30.4239C123.973 33.3681 120.747 35.9829 117.309 37.4616C111.72 39.8361 104.555 37.3492 101.944 31.0984C100.749 28.2173 100.756 25.0437 101.976 22.1607C103.195 19.2777 105.46 17.0555 108.376 15.8779" fill="#FF8800"/>
<path d="M175.243 86.2534H178.383V90.9607H175.243C174.218 90.9607 173.385 90.1761 173.385 89.2114V88.0027C173.385 87.038 174.218 86.2534 175.243 86.2534V86.2534Z" fill="#FF8800" stroke="#CC6D00" stroke-width="0.255112"/>
<path d="M181.521 82.209H184.533" stroke="#CC6D00" stroke-width="0.255112"/>
<path d="M185.687 80.0356H192.864C193.953 80.0356 194.786 80.8202 194.786 81.8465C194.786 82.8727 193.953 83.6573 192.864 83.6573H185.687C184.598 83.6573 183.765 82.8727 183.765 81.8465C183.765 80.8202 184.598 80.0356 185.687 80.0356ZM181.586 93.3135C179.151 93.3135 177.165 91.4433 177.165 89.1501C177.165 86.8559 179.151 84.9846 181.586 84.9846C184.021 84.9846 186.007 86.8559 186.007 89.1501C186.007 91.4433 184.021 93.3145 181.586 93.3145V93.3135ZM181.586 90.8401C182.548 90.8401 183.381 90.1149 183.381 89.1501C183.381 88.1843 182.548 87.4591 181.586 87.4591C180.626 87.4591 179.792 88.1843 179.792 89.1501C179.792 90.1149 180.561 90.8401 181.586 90.8401Z" fill="#FFAB4C" stroke="#CC6D00" stroke-width="0.255112"/>
<path d="M148.65 84.4419H150.764C150.316 84.9847 150.059 85.5286 149.804 86.011H146.983C146.983 85.166 147.752 84.4419 148.65 84.4419Z" fill="#FFAB4C" stroke="#CC6D00" stroke-width="0.255112" stroke-linecap="round" stroke-linejoin="round"/>
<path d="M202.604 73.1558C203.808 73.1558 204.783 72.2369 204.783 71.1033C204.783 69.9697 203.808 69.0508 202.604 69.0508C201.401 69.0508 200.426 69.9697 200.426 71.1033C200.426 72.2369 201.401 73.1558 202.604 73.1558Z" fill="#FFE7CC" stroke="#CC6D00" stroke-width="0.255112"/>
<path d="M160.248 99.895C154.994 99.895 150.701 95.9108 150.701 91.0212C150.701 86.1326 154.995 82.1484 160.248 82.1484C165.504 82.1484 169.796 86.0722 169.796 91.0222C169.796 95.9712 165.503 99.895 160.248 99.895V99.895ZM160.248 95.4888C162.875 95.4888 165.054 93.4957 165.054 91.0212C165.054 88.5467 162.875 86.5546 160.248 86.5546C157.621 86.5546 155.442 88.5478 155.442 91.0212C155.442 93.4967 157.621 95.4888 160.248 95.4888V95.4888Z" fill="#FFCF99" stroke="#CC6D00" stroke-width="0.255112"/>
<path d="M160.247 79.7344C154.224 79.7344 149.29 84.0812 148.842 89.573" stroke="#CC6D00" stroke-width="0.255112" stroke-linecap="round"/>
<path d="M160.184 93.3157C161.599 93.3157 162.747 92.2619 162.747 90.962C162.747 89.6622 161.599 88.6084 160.184 88.6084C158.768 88.6084 157.62 89.6622 157.62 90.962C157.62 92.2619 158.768 93.3157 160.184 93.3157Z" fill="#FFAB4C" stroke="#CC6D00" stroke-width="0.255112"/>
<path d="M208.05 99.895C202.796 99.895 198.503 95.9108 198.503 91.0212C198.503 86.1326 202.797 82.1484 208.05 82.1484C213.305 82.1484 217.598 86.1326 217.598 91.0222C217.598 95.9108 213.304 99.895 208.05 99.895V99.895ZM208.05 95.4888C210.677 95.4888 212.856 93.4957 212.856 91.0212C212.856 88.5467 210.677 86.5546 208.05 86.5546C205.423 86.5546 203.244 88.5478 203.244 91.0212C203.244 93.4967 205.359 95.4888 208.05 95.4888Z" fill="#FFCF99" stroke="#CC6D00" stroke-width="0.255112"/>
<path d="M211.961 81.0021C210.683 80.5608 209.34 80.3361 207.988 80.3374C201.964 80.3374 197.094 84.6842 196.581 90.176" stroke="#CC6D00" stroke-width="0.255112" stroke-linecap="round"/>
<path d="M207.987 93.3157C209.403 93.3157 210.551 92.2619 210.551 90.962C210.551 89.6622 209.403 88.6084 207.987 88.6084C206.572 88.6084 205.424 89.6622 205.424 90.962C205.424 92.2619 206.572 93.3157 207.987 93.3157Z" fill="#FFAB4C" stroke="#CC6D00" stroke-width="0.255112"/>
<path d="M194.723 72.0083L196.261 70.2568L199.465 76.2331L196.261 78.5263L194.723 72.0083Z" fill="#CC6D00" stroke="#CC6D00" stroke-width="0.255112"/>
<path d="M157.685 80.1572H179.727V76.9575C177.613 77.8025 174.921 77.8025 171.589 76.9575C165.181 75.3884 157.236 72.0086 157.62 76.9575C157.683 77.018 157.683 78.0442 157.683 80.1572H157.685Z" fill="#FF8800" stroke="#CC6D00" stroke-width="0.255112"/>
<path d="M157.3 79.7337H151.982V79.3711C151.982 78.5865 152.686 77.9229 153.52 77.9229H157.3V79.7337ZM177.165 79.8545H194.146C197.35 78.7678 199.784 73.1541 194.146 71.585C191.519 70.8609 182.675 73.9991 180.946 74.9045C179.024 75.8703 177.549 75.8703 177.165 79.8545Z" fill="#FFAB4C" stroke="#CC6D00" stroke-width="0.255112"/>
<path fill-rule="evenodd" clip-rule="evenodd" d="M193.054 74.672C193.567 74.4544 194.224 74.6808 194.465 75.2536C194.574 75.5176 194.572 75.8084 194.462 76.0726C194.35 76.3353 194.141 76.5403 193.874 76.6483C193.007 77.0008 191.517 76.62 191.455 76.6029C191.409 76.5919 191.373 76.5588 191.355 76.5171C191.337 76.4738 191.34 76.4249 191.365 76.3851C191.38 76.3601 191.539 76.0965 191.787 75.7762C191.794 75.7659 191.809 75.7646 191.819 75.7736C191.884 75.8264 191.955 75.8718 192.028 75.9128C192.04 75.9189 192.043 75.9322 192.035 75.944C191.909 76.1071 191.806 76.2557 191.733 76.3631C192.158 76.4515 193.16 76.62 193.76 76.3753C194.16 76.2127 194.347 75.7625 194.187 75.3658C194.02 74.9527 193.547 74.7895 193.166 74.9464C192.92 75.0457 192.672 75.2443 192.453 75.4656C192.448 75.4715 192.439 75.4728 192.432 75.4713C192.342 75.4479 192.258 75.4053 192.186 75.3465C192.175 75.3389 192.174 75.3241 192.183 75.3153C192.443 75.0471 192.736 74.806 193.054 74.672M192.198 73.8244C193.062 73.4703 194.547 73.8541 194.611 73.8682C194.655 73.8806 194.693 73.9138 194.71 73.957C194.728 73.9988 194.724 74.0477 194.7 74.0874C194.686 74.111 194.527 74.3775 194.279 74.6964C194.272 74.7067 194.258 74.708 194.248 74.7004C194.183 74.6462 194.113 74.5993 194.039 74.5613C194.027 74.5552 194.023 74.5388 194.032 74.5301C194.157 74.3669 194.262 74.2184 194.333 74.1095C193.908 74.0211 192.909 73.8527 192.31 74.0973C191.913 74.2585 191.725 74.7101 191.886 75.1069C192.052 75.5199 192.523 75.6832 192.903 75.5277C193.149 75.4269 193.395 75.2298 193.616 75.007C193.622 75.0026 193.629 74.9998 193.637 75.0013C193.727 75.0247 193.811 75.0673 193.882 75.1261C193.892 75.1337 193.892 75.1485 193.883 75.1573C193.627 75.427 193.331 75.6666 193.016 75.8021C192.504 76.0197 191.848 75.7918 191.608 75.2191C191.499 74.9551 191.5 74.6643 191.611 74.4001C191.723 74.1359 191.931 73.9323 192.198 73.8244" fill="white"/>
<path d="M165.823 80.3374C168.962 81.4845 170.886 83.0536 171.654 84.9249H176.588L179.921 83.536V80.3374H165.823Z" fill="#FF8800" stroke="#CC6D00" stroke-width="0.255112"/>
<path d="M185.943 64.9458H193.121L207.987 91.9277" stroke="#CC6D00" stroke-width="0.255112" stroke-linecap="round"/>
<path d="M201.9 73.3963V68.2056H199.08C197.542 68.2056 196.325 69.3516 196.325 70.8009C196.325 72.2491 197.542 73.3963 199.081 73.3963H201.9V73.3963Z" fill="#FFAB4C" stroke="#CC6D00" stroke-width="0.255112"/>
<path d="M181.65 79.7344V89.0906M193.504 64.9458L191.583 66.8775H189.725L193.504 64.9458Z" stroke="#CC6D00" stroke-width="0.255112" stroke-linecap="round"/>
<path d="M173.385 84.865V93.4971H187.931C191.583 93.4971 194.979 87.9438 198.119 76.7778" stroke="#CC6D00" stroke-width="0.255112" stroke-linecap="round" stroke-linejoin="round"/>
<path d="M193.57 65.6104C194.313 65.6104 194.915 65.0698 194.915 64.4029C194.915 63.736 194.313 63.1953 193.57 63.1953C192.827 63.1953 192.225 63.736 192.225 64.4029C192.225 65.0698 192.827 65.6104 193.57 65.6104Z" fill="#FF8800" stroke="#CC6D00" stroke-width="0.255112"/>
<path d="M169.604 89.2713H173.641M187.289 83.8389V93.6181V83.8389ZM187.225 86.3144H194.786H187.225ZM187.225 88.0648H193.697H187.225ZM187.225 89.8756H192.928H187.225Z" stroke="#CC6D00" stroke-width="0.255112"/>
<path d="M149.483 93.6167L151.021 90.9609H173.191V93.6167H149.483Z" fill="#FF8800" stroke="#CC6D00" stroke-width="0.255112" stroke-linecap="round" stroke-linejoin="round"/>
<path d="M175.172 66.9692C176.004 68.5383 176.901 69.5041 177.734 69.9271C180.49 70.5304 185.552 69.0811 192.922 65.6408L192.217 63.9508C186.962 66.1846 182.797 67.3307 179.657 67.4516C179.208 67.0296 178.568 66.0627 177.734 64.4936L175.171 66.9692H175.172ZM175.172 60.2688L177.734 57.2515L180.426 59.0623L177.222 61.4763L175.172 60.2688Z" fill="#B55A00"/>
<path d="M184.463 60.1475C183.886 60.0277 182.349 60.1475 182.797 60.2079C183.502 60.3892 183.246 60.2683 183.886 60.3892C184.142 60.4496 184.334 60.4496 184.463 60.4496C183.502 62.3813 182.157 62.2604 181.067 61.4759C180.105 60.8122 179.465 59.4234 179.08 57.251L181.067 55.0776L184.207 56.0424L184.848 58.5784L184.207 59.0618C184.334 59.4838 184.398 59.8464 184.463 60.1475V60.1475Z" fill="#B55A00"/>
<path d="M174.851 67.3915C174.467 70.6516 174.467 72.6437 174.851 73.3678L174.979 73.5481L174.787 73.7294C173.314 74.9974 170.878 74.9974 167.419 73.7898L167.226 73.7294V73.5491C166.649 65.8225 168.956 61.0537 174.211 59.3638H174.338C178.952 60.0285 179.08 62.8041 174.851 67.3915V67.3915Z" fill="#FF8800" stroke="#CC6D00" stroke-width="0.256337"/>
<path d="M167.737 73.246C167.161 75.4787 167.674 76.8072 169.404 77.1687C173.565 77.75 177.762 78.0327 181.963 78.0147C182.411 78.4367 181.836 82.1792 180.938 88.517H182.22C183.95 85.0767 185.231 81.877 186.064 78.9806C187.859 75.9622 184.847 73.9701 175.043 73.1855C170.109 73.3064 167.738 73.246 167.738 73.246H167.737Z" fill="#484848" stroke="#CC6D00" stroke-width="0.256337"/>
<path d="M180.747 87.6719L179.85 90.5694L186.641 92.3802L187.09 90.9309C184.015 90.0255 182.669 89.0597 182.925 88.0938C182.862 88.0938 182.157 87.974 180.747 87.6719V87.6719Z" fill="white" stroke="#CC6D00" stroke-width="0.256337" stroke-linecap="round" stroke-linejoin="round"/>
<path d="M180.724 59.3634C177.713 59.0623 176.367 57.5526 176.175 54.7155C176.175 54.7155 176.111 54.2332 176.367 53.086C176.815 51.9389 177.52 51.3961 178.354 50.9126C179.251 50.4302 180.853 50.4907 182.263 50.7928C183.288 51.0335 184.056 51.4565 184.056 51.4565C186.172 52.6641 186.363 53.931 185.915 55.0781C185.53 56.0429 184.249 56.5868 183.095 56.3461C181.237 55.8022 180.596 56.5263 181.046 59.0019L181.109 59.4238L180.724 59.3634V59.3634Z" fill="#FF8800" stroke="#CC6D00" stroke-width="0.256337"/>
<path d="M174.531 67.2707C174.531 67.2707 177.671 66.3653 179.016 65.6412C177.799 61.658 176.325 59.7253 174.531 59.9681C171.904 60.9329 171.904 63.4084 174.531 67.2707Z" fill="white" stroke="#CC6D00" stroke-width="0.256337"/>
<path d="M167.757 67.6938H174.467V68.841H167.418L167.757 67.6938ZM167.418 70.1079H174.467V71.255H167.418V70.1079Z" fill="white"/>
<path d="M166.137 55.4408C166.457 57.4319 167.098 58.6999 167.932 59.3031C168.957 60.0283 170.11 60.8128 170.687 58.7603C170.623 58.4581 170.623 57.8549 170.687 57.1308L171.264 56.7078L170.687 54.3541L167.931 53.4487L166.137 55.4408V55.4408Z" fill="#B55A00"/>
<path d="M164.663 66.045C162.998 69.4863 161.843 72.9256 164.6 72.2025L164.727 72.3828L164.536 72.5641C163.062 73.8321 160.626 73.8321 157.167 72.6245L156.974 72.5641V72.3838C157.679 64.355 158.896 60.8543 163.895 58.4402L164.151 58.3193L164.407 58.4402C165.944 61.8201 168.252 64.9593 164.663 66.045V66.045Z" fill="#FF8800" stroke="#CC6D00" stroke-width="0.256337"/>
<path d="M157.487 72.0392C156.91 74.273 157.167 77.3507 158.897 77.7737C164.472 78.5583 167.803 76.8079 170.366 76.8079C170.815 77.2299 171.52 80.9723 170.687 87.3102H171.968C173.635 81.1536 173.186 80.4295 174.02 77.532C174.595 74.9367 174.468 73.7291 164.855 72.0996C159.921 71.4359 157.487 72.0392 157.487 72.0392V72.0392Z" fill="#89BAF3" stroke="#CC6D00" stroke-width="0.256337"/>
<path d="M164.278 58.6388L166.265 56.0435L168.252 57.5521L165.816 59.6651L164.278 58.6388ZM161.074 62.7428C158.768 68.1752 157.486 72.7022 157.166 76.3239C156.91 77.7731 158.447 78.2555 159.152 76.9282C159.6 73.3066 161.074 69.0213 163.638 64.0108L161.074 62.7428V62.7428Z" fill="#B55A00"/>
<path d="M161.011 62.6233C161.011 62.6233 163.061 63.8902 164.086 64.3133C165.817 61.597 166.201 59.7862 165.24 58.8808C163.446 57.915 162.036 59.1819 161.011 62.6233Z" fill="#FF8800" stroke="#CC6D00" stroke-width="0.256337"/>
<path d="M162.101 54.6551C161.203 55.2594 160.818 56.7077 160.049 57.6131C159.473 58.3372 158.639 58.6393 157.999 58.458C158.256 58.9415 158.64 59.1821 159.024 59.4843C159.473 59.726 159.858 59.9677 160.371 60.0282C161.203 60.148 162.1 59.6656 162.87 58.8196C163.575 57.9756 164.087 56.8285 164.343 55.621C164.343 55.621 164.023 55.0177 163.958 54.9573C163.895 54.7156 163.831 54.6551 163.638 54.5958C163.19 54.2332 162.613 54.2936 162.101 54.6551V54.6551Z" fill="#6B3918"/>
<path d="M159.794 58.7602C160.434 58.5799 161.074 58.0361 161.587 57.3713C161.972 56.8889 162.356 56.2857 162.741 55.8022C163.093 55.4136 163.569 55.158 164.087 55.0781C164.151 55.199 164.215 55.2584 164.278 55.3198C163.766 56.1044 163.253 56.8285 162.677 57.4932C162.228 57.9756 161.844 58.3976 161.331 58.7602C160.882 59.0623 160.37 59.303 159.857 59.303C159.665 59.303 159.537 59.2426 159.345 59.2426C158.96 59.1228 158.384 58.9415 158.127 58.5184C158.384 58.5184 158.575 58.7602 158.832 58.8206C159.152 58.881 159.472 58.881 159.794 58.7602V58.7602Z" fill="#593012"/>
<path d="M160.242 59.0008C160.498 58.9414 160.754 58.7601 161.011 58.5789C162.164 57.7339 163.19 56.5263 164.151 55.3198C164.151 55.3803 164.215 55.4407 164.215 55.4407C164.087 56.9493 163.19 58.3986 162.228 59.303C161.716 59.7864 161.203 60.1479 160.627 60.0875C160.37 60.0875 160.177 59.9677 159.921 59.9073C159.281 59.6051 158.384 59.303 158.063 58.458C158.896 58.6997 159.409 59.303 160.242 59.0019V59.0008Z" fill="#47280D"/>
<path d="M170.366 87.0088L169.341 90.6304L170.687 90.9315L171.199 89.0603L173.378 91.5358L176.389 92.1995L174.147 90.57L172.481 87.3703L170.366 87.0088Z" fill="white" stroke="#CC6D00" stroke-width="0.20409" stroke-linecap="round" stroke-linejoin="round"/>
<path d="M167.739 57.8548C165.177 57.5527 164.023 56.3462 163.767 53.8102C163.767 53.8102 163.703 53.3278 163.959 52.2411C164.344 51.2148 164.984 50.7325 165.689 50.3094C166.458 49.8875 167.804 49.9479 169.021 50.1886C169.854 50.3699 170.558 50.7325 170.558 50.7325C172.353 51.8191 172.545 52.9652 172.161 53.9915C171.841 54.8365 170.751 55.3199 169.79 55.0782C168.189 54.5958 167.676 55.2584 168.06 57.4922L168.123 57.8548H167.739V57.8548Z" fill="#FF8800" stroke="#CC6D00" stroke-width="0.256337"/>
<path d="M169.405 57.9155C169.789 58.1573 170.174 58.3979 170.622 58.5792C170.559 58.399 170.559 58.399 170.43 58.3375C170.302 58.3375 170.174 58.2771 170.046 58.2177C169.854 58.1573 169.662 58.0364 169.405 57.9155Z" fill="#FF0000"/>
</svg>
