<svg width="98" height="70" viewBox="0 0 98 70" fill="none" xmlns="http://www.w3.org/2000/svg">
<g clip-path="url(#clip0_4466_15219)">
<path d="M39.292 50.5745H43.6166V57.0591H39.292C37.8797 57.0591 36.7317 55.9784 36.7317 54.6493V52.9843C36.7317 51.6552 37.8797 50.5745 39.292 50.5745Z" fill="#FF8800" stroke="#CC6D00" stroke-width="0.629187"/>
<path d="M47.9375 45.0039H52.0868" stroke="#CC6D00" stroke-width="0.629187"/>
<path d="M53.6835 42.0109H63.5711C65.0711 42.0109 66.219 43.0916 66.219 44.5054C66.219 45.9192 65.0711 47 63.5711 47H53.6835C52.1835 47 51.0355 45.9192 51.0355 44.5054C51.0355 43.0916 52.1835 42.0109 53.6835 42.0109ZM48.0342 60.3023C44.6794 60.3023 41.9438 57.726 41.9438 54.5669C41.9438 51.4063 44.6794 48.8285 48.0342 48.8285C51.389 48.8285 54.1245 51.4063 54.1245 54.5669C54.1245 57.726 51.389 60.3038 48.0342 60.3038V60.3023ZM48.0342 56.895C49.3589 56.895 50.5068 55.896 50.5068 54.5669C50.5068 53.2364 49.3589 52.2374 48.0342 52.2374C46.711 52.2374 45.563 53.2364 45.563 54.5669C45.563 55.896 46.6219 56.895 48.0342 56.895Z" fill="#FFAB4C" stroke="#CC6D00" stroke-width="0.629187"/>
<path d="M2.65713 48.0807H5.5694C4.9516 48.8285 4.59816 49.5777 4.24617 50.2422H0.361206C0.361206 49.0782 1.42008 48.0807 2.65713 48.0807Z" fill="#FFAB4C" stroke="#CC6D00" stroke-width="0.629187" stroke-linecap="round" stroke-linejoin="round"/>
<path d="M76.9816 32.5308C78.6392 32.5308 79.9829 31.2649 79.9829 29.7033C79.9829 28.1417 78.6392 26.8757 76.9816 26.8757C75.324 26.8757 73.9802 28.1417 73.9802 29.7033C73.9802 31.2649 75.324 32.5308 76.9816 32.5308Z" fill="#FFE7CC" stroke="#CC6D00" stroke-width="0.629187"/>
<path d="M18.6339 69.3667C11.3956 69.3667 5.48193 63.8781 5.48193 57.1422C5.48193 50.4078 11.397 44.9192 18.6339 44.9192C25.8736 44.9192 31.7872 50.3246 31.7872 57.1437C31.7872 63.9614 25.8722 69.3667 18.6339 69.3667ZM18.6339 63.2968C22.253 63.2968 25.2544 60.5511 25.2544 57.1422C25.2544 53.7334 22.253 50.9891 18.6339 50.9891C15.0147 50.9891 12.0133 53.7349 12.0133 57.1422C12.0133 60.5525 15.0147 63.2968 18.6339 63.2968Z" fill="#FFCF99" stroke="#CC6D00" stroke-width="0.629187"/>
<path d="M18.6338 41.5928C10.3367 41.5928 3.53943 47.5809 2.92163 55.1464" stroke="#CC6D00" stroke-width="0.629187" stroke-linecap="round"/>
<path d="M18.5445 60.3043C20.4949 60.3043 22.076 58.8527 22.076 57.062C22.076 55.2713 20.4949 53.8196 18.5445 53.8196C16.5941 53.8196 15.0129 55.2713 15.0129 57.062C15.0129 58.8527 16.5941 60.3043 18.5445 60.3043Z" fill="#FFAB4C" stroke="#CC6D00" stroke-width="0.629187"/>
<path d="M84.4854 69.3667C77.2471 69.3667 71.3335 63.8781 71.3335 57.1422C71.3335 50.4078 77.2486 44.9192 84.4854 44.9192C91.7252 44.9192 97.6388 50.4078 97.6388 57.1437C97.6388 63.8781 91.7237 69.3667 84.4854 69.3667ZM84.4854 63.2968C88.1046 63.2968 91.1059 60.5511 91.1059 57.1422C91.1059 53.7334 88.1046 50.9891 84.4854 50.9891C80.8663 50.9891 77.8649 53.7349 77.8649 57.1422C77.8649 60.5525 80.7786 63.2968 84.4854 63.2968Z" fill="#FFCF99" stroke="#CC6D00" stroke-width="0.629187"/>
<path d="M89.872 43.3418C88.1111 42.7338 86.2609 42.4243 84.398 42.4261C76.0994 42.4261 69.3912 48.4142 68.6843 55.9797" stroke="#CC6D00" stroke-width="0.629187" stroke-linecap="round"/>
<path d="M84.4011 60.3043C86.3516 60.3043 87.9327 58.8527 87.9327 57.062C87.9327 55.2713 86.3516 53.8196 84.4011 53.8196C82.4507 53.8196 80.8696 55.2713 80.8696 57.062C80.8696 58.8527 82.4507 60.3043 84.4011 60.3043Z" fill="#FFAB4C" stroke="#CC6D00" stroke-width="0.629187"/>
<path d="M66.124 30.9516L68.2432 28.5388L72.6569 36.7717L68.2432 39.9308L66.124 30.9516Z" fill="#CC6D00" stroke="#CC6D00" stroke-width="0.629187"/>
<path d="M15.1052 42.1776H45.4708V37.7698C42.5585 38.9338 38.8502 38.9338 34.2598 37.7698C25.4325 35.6082 14.4874 30.9521 15.0161 37.7698C15.1038 37.853 15.1038 39.2668 15.1038 42.1776H15.1052Z" fill="#FF8800" stroke="#CC6D00" stroke-width="0.629187"/>
<path d="M14.5714 41.5948H7.24548V41.0953C7.24548 40.0145 8.21526 39.1002 9.36323 39.1002H14.5714V41.5948ZM41.9371 41.7613H65.3301C69.7438 40.2643 73.0971 32.5308 65.3301 30.3693C61.711 29.3717 49.5273 33.6949 47.1453 34.9421C44.4973 36.2727 42.4658 36.2727 41.9371 41.7613Z" fill="#FFAB4C" stroke="#CC6D00" stroke-width="0.629187"/>
<path d="M26.3228 42.4261C30.6473 44.0064 33.2967 46.1679 34.3556 48.7457H41.1528L45.7432 46.8325V42.4261H26.3228Z" fill="#FF8800" stroke="#CC6D00" stroke-width="0.629187"/>
<path d="M54.0326 21.2208H63.9203L84.3996 58.3909" stroke="#CC6D00" stroke-width="0.629187" stroke-linecap="round"/>
<path d="M76.0161 32.8645V25.7139H72.1311C70.0133 25.7139 68.3367 27.2927 68.3367 29.2892C68.3367 31.2843 70.0133 32.8645 72.1325 32.8645H76.0161Z" fill="#FFAB4C" stroke="#CC6D00" stroke-width="0.629187"/>
<path d="M48.1227 41.5935V54.4826M64.4527 21.2208L61.8062 23.8819H59.246L64.4527 21.2208Z" stroke="#CC6D00" stroke-width="0.629187" stroke-linecap="round"/>
<path d="M36.7317 48.6606V60.5521H56.7699C61.8014 60.5521 66.4794 52.9019 70.8055 37.5198" stroke="#CC6D00" stroke-width="0.629187" stroke-linecap="round" stroke-linejoin="round"/>
<path d="M64.5365 22.1385C65.5601 22.1385 66.3899 21.3937 66.3899 20.475C66.3899 19.5562 65.5601 18.8115 64.5365 18.8115C63.5129 18.8115 62.6831 19.5562 62.6831 20.475C62.6831 21.3937 63.5129 22.1385 64.5365 22.1385Z" fill="#FF8800" stroke="#CC6D00" stroke-width="0.629187"/>
<path d="M31.5171 54.7314H37.0787M55.8799 47.2477V60.7195V47.2477ZM55.7923 50.658H66.2087H55.7923ZM55.7923 53.0693H64.7087H55.7923ZM55.7923 55.5639H63.6484H55.7923Z" stroke="#CC6D00" stroke-width="0.629187"/>
<path d="M3.80212 60.7202L5.91987 57.0616H36.4621V60.7202H3.80212Z" fill="#FF8800" stroke="#CC6D00" stroke-width="0.629187" stroke-linecap="round" stroke-linejoin="round"/>
<path d="M39.1976 24.008C40.3441 26.1696 41.5797 27.5001 42.7277 28.0829C46.5236 28.9139 53.4975 26.9174 63.6495 22.178L62.6783 19.85C55.44 22.9273 49.7016 24.5061 45.3756 24.6726C44.7578 24.0913 43.8757 22.7593 42.7277 20.5977L39.1962 24.008H39.1976ZM39.1976 14.7776L42.7277 10.621L46.4359 13.1155L42.0223 16.4411L39.1976 14.7776Z" fill="#B55A00"/>
<path d="M51.9907 14.6105C51.1962 14.4455 49.0784 14.6105 49.6962 14.6938C50.6675 14.9435 50.314 14.777 51.1962 14.9435C51.5496 15.0268 51.814 15.0268 51.9907 15.0268C50.6675 17.6878 48.8141 17.5213 47.3127 16.4405C45.988 15.5263 45.1059 13.613 44.5757 10.6204L47.3127 7.62634L51.6387 8.95541L52.5209 12.449L51.6387 13.115C51.814 13.6962 51.9016 14.1957 51.9907 14.6105Z" fill="#B55A00"/>
<path d="M38.748 24.5883C38.2193 29.0794 38.2193 31.8237 38.748 32.8212L38.9247 33.0695L38.6604 33.3193C36.6302 35.066 33.2754 35.066 28.5098 33.4025L28.244 33.3193V33.071C27.4494 22.4267 30.6275 15.8574 37.8658 13.5293H38.0411C44.3972 14.445 44.574 18.2687 38.748 24.5883Z" fill="#FF8800" stroke="#CC6D00" stroke-width="0.632207"/>
<path d="M28.9496 32.6555C28.1551 35.7313 28.862 37.5613 31.2455 38.0594C36.9774 38.8601 42.7593 39.2496 48.5468 39.2248C49.1646 39.8061 48.3715 44.9617 47.1345 53.6927H48.9002C51.2838 48.9533 53.0481 44.5455 54.196 40.5554C56.6687 36.3973 52.5194 33.653 39.014 32.5722C32.2168 32.7387 28.9511 32.6555 28.9511 32.6555H28.9496Z" fill="#484848" stroke="#CC6D00" stroke-width="0.632207"/>
<path d="M46.8695 52.5264L45.6339 56.518L54.99 59.0126L55.6078 57.016C51.3723 55.7688 49.5174 54.4382 49.8709 53.1077C49.7832 53.1077 48.812 52.9427 46.8695 52.5264Z" fill="white" stroke="#CC6D00" stroke-width="0.632207" stroke-linecap="round" stroke-linejoin="round"/>
<path d="M46.8406 13.5297C42.6927 13.1149 40.8379 11.0351 40.5735 7.12679C40.5735 7.12679 40.4859 6.46226 40.8379 4.88198C41.4557 3.30171 42.4269 2.55392 43.5749 1.88793C44.8105 1.2234 47.0173 1.30665 48.9598 1.72289C50.3721 2.05443 51.431 2.63717 51.431 2.63717C54.3447 4.3007 54.6091 6.04601 53.9913 7.62629C53.4611 8.95536 51.6968 9.7046 50.1063 9.37306C47.5475 8.62382 46.6639 9.62135 47.2831 13.0316L47.3708 13.6129L46.8406 13.5297Z" fill="#FF8800" stroke="#CC6D00" stroke-width="0.632207"/>
<path d="M38.3021 24.4223C38.3021 24.4223 42.6282 23.1751 44.4801 22.1775C42.8049 16.6904 40.7733 14.0279 38.3021 14.3623C34.683 15.6914 34.683 19.1017 38.3021 24.4223Z" fill="white" stroke="#CC6D00" stroke-width="0.632207"/>
<path d="M28.9804 25.0049H38.224V26.5852H28.5131L28.9804 25.0049ZM28.5131 28.3305H38.224V29.9108H28.5131V28.3305Z" fill="white"/>
<path d="M26.7421 8.12718C27.1831 10.87 28.0668 12.6168 29.2147 13.4478C30.627 14.4468 32.2161 15.5276 33.0106 12.7C32.923 12.2838 32.923 11.4528 33.0106 10.4552L33.8051 9.87249L33.0106 6.63015L29.2133 5.38287L26.7421 8.12718Z" fill="#B55A00"/>
<path d="M24.7135 22.7346C22.419 27.4754 20.8285 32.2133 24.6258 31.2172L24.8011 31.4655L24.5382 31.7153C22.5081 33.462 19.1518 33.462 14.3862 31.7985L14.1204 31.7153V31.467C15.0916 20.4065 16.7683 15.5839 23.6546 12.2583L24.008 12.0918L24.36 12.2583C26.4778 16.9144 29.6573 21.239 24.7135 22.7346Z" fill="#FF8800" stroke="#CC6D00" stroke-width="0.632207"/>
<path d="M14.8243 30.9921C14.0298 34.0694 14.3832 38.3093 16.7668 38.892C24.4462 39.9728 29.0351 37.5615 32.5666 37.5615C33.1844 38.1428 34.1556 43.2984 33.0091 52.0293H34.7734C37.0694 43.5481 36.4516 42.5506 37.5995 38.559C38.3926 34.9837 38.2173 33.3202 24.9749 31.0754C18.1776 30.1611 14.8243 30.9921 14.8243 30.9921Z" fill="#89BAF3" stroke="#CC6D00" stroke-width="0.632207"/>
<path d="M24.1801 12.5339L26.9171 8.95856L29.6541 11.0369L26.2993 13.9477L24.1801 12.5339ZM19.7664 18.1875C16.5898 25.6712 14.8241 31.9076 14.383 36.8967C14.0295 38.8932 16.1473 39.5578 17.1185 37.7292C17.7363 32.7401 19.7664 26.8367 23.298 19.9343L19.7664 18.1875Z" fill="#B55A00"/>
<path d="M19.6826 18.0225C19.6826 18.0225 22.5072 19.7678 23.9196 20.3505C26.3031 16.6087 26.8333 14.1141 25.5086 12.8669C23.0374 11.5363 21.0949 13.2817 19.6826 18.0225Z" fill="#FF8800" stroke="#CC6D00" stroke-width="0.632207"/>
<path d="M21.1769 7.04569C19.9398 7.87818 19.4096 9.87324 18.3508 11.1205C17.5562 12.1181 16.4083 12.5343 15.5261 12.2846C15.8796 12.9505 16.4097 13.2821 16.9384 13.6983C17.5562 14.0313 18.0864 14.3643 18.7933 14.4476C19.9398 14.6126 21.1754 13.9481 22.2357 12.7826C23.207 11.62 23.9124 10.0397 24.2658 8.37622C24.2658 8.37622 23.8248 7.54519 23.7357 7.46194C23.648 7.12894 23.5604 7.04569 23.2946 6.9639C22.6768 6.46441 21.8823 6.54766 21.1769 7.04569Z" fill="#6B3918"/>
<path d="M18.0022 12.6994C18.8844 12.4511 19.7665 11.7018 20.4734 10.7861C21.0036 10.1216 21.5323 9.29054 22.0625 8.62454C22.5481 8.08918 23.2029 7.737 23.9173 7.62701C24.0049 7.79351 24.0926 7.8753 24.1802 7.96001C23.4748 9.04079 22.7679 10.0383 21.9748 10.9541C21.3556 11.6186 20.8269 12.1999 20.12 12.6994C19.5022 13.1156 18.7967 13.4472 18.0899 13.4472C17.8255 13.4472 17.6488 13.3639 17.3844 13.3639C16.8543 13.1989 16.0597 12.9491 15.7063 12.3664C16.0597 12.3664 16.3241 12.6994 16.6775 12.7826C17.1186 12.8659 17.5597 12.8659 18.0022 12.6994Z" fill="#593012"/>
<path d="M18.6239 13.031C18.9759 12.9492 19.3293 12.6995 19.6828 12.4497C21.2718 11.2857 22.6841 9.62215 24.0088 7.96008C24.0088 8.04333 24.0965 8.12658 24.0965 8.12658C23.9212 10.2049 22.6841 12.2014 21.3595 13.4472C20.654 14.1132 19.9471 14.6113 19.1541 14.528C18.8006 14.528 18.5348 14.363 18.1814 14.2797C17.2992 13.8635 16.0636 13.4472 15.6226 12.2832C16.7691 12.6162 17.476 13.4472 18.6239 13.0324V13.031Z" fill="#47280D"/>
<path d="M32.5697 51.6155L31.1573 56.6047L33.0122 57.0194L33.7176 54.4416L36.719 57.8519L40.8668 58.7662L37.7779 56.5214L35.4834 52.1136L32.5697 51.6155Z" fill="white" stroke="#CC6D00" stroke-width="0.50335" stroke-linecap="round" stroke-linejoin="round"/>
<path d="M28.9483 11.454C25.4182 11.0377 23.8292 9.37568 23.4757 5.88213C23.4757 5.88213 23.3881 5.2176 23.7401 3.72057C24.2703 2.30679 25.1524 1.64226 26.1237 1.05951C27.1825 0.47823 29.0374 0.561478 30.7141 0.893015C31.862 1.14276 32.8318 1.64226 32.8318 1.64226C35.3044 3.13929 35.5688 4.7181 35.0401 6.13188C34.599 7.29591 33.0976 7.9619 31.7729 7.6289C29.5675 6.96437 28.8607 7.87719 29.3894 10.9545L29.477 11.454H28.9483Z" fill="#FF8800" stroke="#CC6D00" stroke-width="0.632207"/>
<path d="M31.2462 11.5364C31.7749 11.8694 32.3051 12.2009 32.9229 12.4507C32.8353 12.2024 32.8353 12.2024 32.6585 12.1177C32.4818 12.1177 32.3051 12.0344 32.1284 11.9526C31.864 11.8694 31.5997 11.7029 31.2462 11.5364Z" fill="#FF0000"/>
</g>
<defs>
<clipPath id="clip0_4466_15219">
<rect width="97.2777" height="68.7335" fill="white" transform="translate(0.361206 0.63324)"/>
</clipPath>
</defs>
</svg>
