<svg width="150" height="150" viewBox="0 0 150 150" fill="none" xmlns="http://www.w3.org/2000/svg">
<g clip-path="url(#clip0_4466_15220)">
<path d="M97.0993 71.8845L72.0963 64.0436C69.4171 63.2753 67.9308 60.3559 68.6731 57.5888L79.5375 60.9702C80.2831 61.2766 81.1746 60.8162 81.4728 59.8939C81.7694 59.1255 81.3237 58.2032 80.4306 57.8952L69.5662 54.5138L68.0783 54.0534C65.399 53.2834 63.9127 50.2117 64.6551 47.5986L64.8042 46.9826L75.2213 50.364C75.9669 50.672 76.8583 50.2117 77.1566 49.2893C77.4548 48.5193 77.0074 47.5986 76.1144 47.2906L65.6973 43.9092L64.2093 43.4489L63.762 43.2949C61.0844 42.5248 59.5965 39.4514 60.3404 36.8384L60.4879 36.224L90.1038 45.5999C94.42 46.9826 96.9502 51.7484 95.6097 56.2045L94.5692 59.7399C93.6761 62.815 95.3131 66.0424 98.1398 67.1187C99.3312 67.5791 100.075 68.9618 99.6294 70.1921C99.6294 71.5748 98.289 72.3432 97.0993 71.8828V71.8845Z" fill="#E6BA8A"/>
<path d="M66.864 61.261L100.946 45.8337L133.808 60.3459L101.859 116.101L66.864 61.261Z" fill="#FFAB4C" stroke="#CC6D00" stroke-width="1.43039" stroke-linejoin="round"/>
<path d="M66.864 61.5662L100.641 76.3829L101.098 117.627L67.4738 102.81L66.864 61.5662Z" fill="#FFAB4C" stroke="#CC6D00" stroke-width="1.43039" stroke-linecap="round" stroke-linejoin="round"/>
<path d="M100.638 76.3831L133.805 60.8027L134.415 102.047L101.095 117.627L100.638 76.3831Z" fill="#FFAB4C" stroke="#CC6D00" stroke-width="1.43039" stroke-linejoin="round"/>
<path d="M105.511 104.639L116.163 99.9046M105.511 110.75L126.66 101.279L105.511 110.75ZM105.511 107.694L126.66 98.2242L105.511 107.694Z" stroke="#FFCF99" stroke-width="1.43039" stroke-linecap="round" stroke-linejoin="round"/>
<path d="M110.376 50.4128L122.396 55.4537L86.7943 71.9508L86.9451 87.2267L82.3816 79.5887L77.8164 84.3235L77.6656 65.9931L110.376 50.4128Z" fill="#FFCF99" stroke="#CC6D00" stroke-width="1.43039"/>
<path d="M73.6898 97.7383L47.7289 90.6488C44.9631 89.9089 43.4288 87.2513 44.1952 84.5922L55.5644 87.6953C56.3323 87.9897 57.2543 87.3993 57.5604 86.661C57.8683 85.921 57.2543 85.0362 56.4863 84.7402L45.1171 81.6387L43.5811 81.1963C40.8153 80.4563 39.281 77.6508 40.0474 74.9917L40.2013 74.4013L51.1104 77.3548C51.8767 77.6508 52.8003 77.0604 53.1065 76.322C53.4127 75.5821 52.7986 74.6973 52.0306 74.4013L41.1215 71.4478L39.5872 71.0038L39.1254 70.8558C36.3614 70.1174 34.8254 67.3119 35.5917 64.6528L35.7456 64.0624L66.6257 72.4805C71.0797 73.6629 73.8454 78.2412 72.4634 82.6731L71.3875 86.0706C70.4673 89.0241 72.1572 92.1256 75.2291 93.012C76.4572 93.456 77.2252 94.6367 76.919 95.9655C76.4572 97.4439 75.0752 98.1822 73.6915 97.7383H73.6898Z" fill="#FFCF99"/>
</g>
<defs>
<clipPath id="clip0_4466_15220">
<rect width="148.54" height="149.135" fill="white" transform="translate(0.72998 0.432312)"/>
</clipPath>
</defs>
</svg>
