<svg width="216" height="104" viewBox="0 0 216 104" fill="none" xmlns="http://www.w3.org/2000/svg">
<path d="M184.112 100.78C185.46 94.886 186.173 88.7456 186.173 82.4369C186.173 37.6666 150.278 1.37317 105.999 1.37317C61.721 1.37317 25.8262 37.6666 25.8262 82.4369C25.8262 88.6648 26.5208 94.7286 27.8359 100.553" fill="#FFE7CC"/>
<path d="M159.64 100.757C161.54 95.0348 162.57 88.9085 162.57 82.5391C162.57 50.9499 137.243 25.3418 106.001 25.3418C74.7584 25.3418 49.4316 50.9499 49.4316 82.5391C49.4316 88.917 50.4641 95.0512 52.3692 100.78" fill="#FFF0DF"/>
<path d="M92.6026 63.3023L60.8008 99.706H79.373L96.4188 75.2427L124.15 73.7865L141.45 51.6531L148.828 58.6426L158.652 27.9987L126.44 35.6355L133.818 42.625L115.754 63.3023H92.6026Z" fill="#F58721"/>
<path d="M15.6172 100.78H194.774" stroke="#CC6D00" stroke-width="0.605125" stroke-linecap="round"/>
<path fill-rule="evenodd" clip-rule="evenodd" d="M95.543 28.1361C98.2498 32.9941 102.123 33.6556 106.678 30.8206L110.27 20.5695L105.759 17.5271L98.8535 18.5555L95.543 20.5695V28.1361Z" fill="#B45C27"/>
<path d="M110.454 21.8546L107.968 26.6423L109.073 21.8546C108.521 21.4556 106.992 20.05 104.561 19.0924C102.131 18.1348 100.725 18.6934 100.326 19.0924L99.6816 19.9211C99.0371 20.1973 97.7849 20.9707 97.9322 21.8546C98.0795 22.7384 97.5025 24.8009 97.1956 25.7216C97.2263 25.5068 97.214 24.8009 96.9193 23.696C96.6247 22.5912 96.2442 23.2357 96.0908 23.696L95.5383 26.6423C95.3234 26.5196 94.8938 26.2188 94.8938 25.9979C94.8938 25.7216 94.6176 24.7088 94.3414 23.696C94.0652 22.6832 93.8809 22.7753 93.4206 22.3149C92.9602 21.8546 92.2236 20.5656 92.5919 19.0924C92.9602 17.6192 93.973 16.1461 93.4206 15.8699C92.8681 15.5937 93.973 15.3174 95.5383 14.1205C97.1035 12.9235 96.3669 13.6601 96.9193 12.5552C97.4718 11.4504 101.431 11.5424 103.272 11.9107C105.114 12.279 106.311 12.5552 107.968 12.5552C109.625 12.5552 109.902 12.8314 111.283 13.6601C112.664 14.4888 111.835 14.9491 113.032 16.1461C113.99 17.1036 111.712 20.3507 110.454 21.8546Z" fill="black"/>
<path fill-rule="evenodd" clip-rule="evenodd" d="M98.4062 27.1371C100.279 28.4991 103.155 28.8609 104.135 28.7086C103.5 30.2528 99.0334 29.9744 98.4062 27.1371Z" fill="#FEFEFE"/>
<path fill-rule="evenodd" clip-rule="evenodd" d="M105.169 99.0075H103.011C102.271 95.5463 101.663 76.572 101.205 63.4107C101.205 63.3308 101.196 63.2598 101.196 63.18C101.187 63.046 101.073 62.9581 100.949 62.9838C100.949 62.9838 98.7292 63.2412 98.5619 63.4187C98.4297 63.5616 98.3416 63.7391 98.3416 63.9521C97.9099 77.0868 97.9363 95.5898 97.2139 99.0075H95.0555C94.8617 96.0965 90.4743 55.5468 93.223 55.7429L101.355 56.7271H101.372L105.909 56.4529C108.658 56.2576 105.363 96.0965 105.169 99.0075Z" fill="#494849"/>
<path fill-rule="evenodd" clip-rule="evenodd" d="M103.291 98.6991H104.876C104.899 98.3882 104.934 97.9341 104.978 97.3566C107.692 61.686 106.547 57.082 105.928 56.7585L101.392 57.0366L93.1465 56.0495C92.3431 56.548 91.9705 63.7784 95.0197 95.3682C95.171 96.9302 95.2825 98.0914 95.3338 98.6991H96.9204C97.346 96.1465 97.4964 87.7726 97.6566 78.9269C97.7486 73.8289 97.8433 68.5584 97.9955 63.9259C97.9955 63.6567 98.1034 63.3937 98.3061 63.176C98.3892 63.0881 98.5591 62.9077 100.908 62.6376C101.031 62.6092 101.189 62.6465 101.312 62.7389C101.437 62.8331 101.515 62.9806 101.526 63.1414L101.635 66.2688C102.056 78.4107 102.629 94.9275 103.291 98.6991ZM105.496 99.3657H102.75L102.693 99.1027C101.996 95.8535 101.429 79.462 100.972 66.2921L100.868 63.3121C99.9378 63.4241 98.9131 63.5858 98.7388 63.6738C98.7025 63.7262 98.6592 63.8266 98.6592 63.9376C98.507 68.5755 98.4123 73.8442 98.3203 78.9387C98.1459 88.552 97.9964 96.8531 97.5195 99.1018L97.4637 99.3657H94.7171L94.6959 99.0547C94.6667 98.6149 94.5419 97.3177 94.3597 95.4324C92.6616 77.8388 90.9379 57.4118 92.7014 55.5939C92.8846 55.4056 93.0793 55.3772 93.2102 55.3869L101.394 56.374L105.909 56.0968C106.033 56.0915 106.233 56.1173 106.42 56.3056C107.886 57.7876 107.632 71.232 105.639 97.4075C105.578 98.2222 105.534 98.7899 105.516 99.0547L105.496 99.3657Z" fill="#C96F28"/>
<path fill-rule="evenodd" clip-rule="evenodd" d="M102.916 99.0074H105.478L105.765 99.691C109.264 100.579 110.885 101.006 111.296 102.926C109.653 103.052 106.187 102.362 102.848 100.778C102.747 100.731 102.681 100.617 102.71 100.507C102.835 100.02 102.865 99.5528 102.916 99.0074Z" fill="#FEFEFE"/>
<path fill-rule="evenodd" clip-rule="evenodd" d="M103.038 100.497C106.021 101.903 109.155 102.603 110.874 102.611C110.394 101.282 109.031 100.868 105.678 100.015C105.576 99.988 105.491 99.9147 105.45 99.8158L105.248 99.3361H103.204C103.169 99.7307 103.13 100.11 103.038 100.497ZM110.9 103.298C109.059 103.298 105.819 102.577 102.686 101.087C102.434 100.968 102.295 100.68 102.363 100.416C102.468 100.011 102.503 99.6125 102.545 99.151L102.561 98.9615C102.577 98.7839 102.723 98.6493 102.897 98.6493H105.471C105.606 98.6493 105.729 98.7317 105.781 98.8571L106.004 99.3891C109.454 100.268 111.193 100.741 111.647 102.865C111.667 102.963 111.646 103.064 111.587 103.144C111.53 103.224 111.44 103.274 111.343 103.281C111.206 103.292 111.059 103.298 110.9 103.298Z" fill="#C96F28"/>
<path fill-rule="evenodd" clip-rule="evenodd" d="M97.4776 99.0074H94.9154L94.6282 99.691C91.1285 100.579 89.5083 101.006 89.0977 102.926C90.7402 103.052 94.206 102.362 97.5456 100.778C97.6458 100.731 97.712 100.617 97.6834 100.507C97.5581 100.02 97.5277 99.5528 97.4776 99.0074Z" fill="#FEFEFE"/>
<path fill-rule="evenodd" clip-rule="evenodd" d="M95.1449 99.3361L94.9436 99.8158C94.9022 99.9147 94.8186 99.988 94.7152 100.015C91.363 100.868 89.9993 101.282 89.5192 102.611C91.2389 102.603 94.3736 101.903 97.3555 100.498C97.2638 100.11 97.2242 99.7316 97.1892 99.3361H95.1449ZM89.4937 103.298C89.3363 103.298 89.188 103.292 89.0523 103.282C88.9543 103.274 88.8653 103.224 88.8069 103.144C88.7484 103.064 88.7269 102.963 88.7484 102.865C89.2015 100.741 90.9401 100.268 94.3903 99.39L94.6133 98.858C94.6654 98.7317 94.7877 98.6493 94.9225 98.6493H97.498C97.6724 98.6493 97.8172 98.7839 97.8334 98.9615L97.8504 99.151C97.8909 99.6125 97.9268 100.011 98.0311 100.417C98.0994 100.686 97.9637 100.968 97.7084 101.087C94.5746 102.577 91.3347 103.298 89.4937 103.298Z" fill="#C96F28"/>
<path fill-rule="evenodd" clip-rule="evenodd" d="M112.333 55.0268L112.407 53.239L112.333 55.0268Z" fill="#FDCF9A"/>
<path d="M99.7117 58.4999C102.446 58.4999 105.915 57.7403 107.308 57.3605L106.168 44.4473L110.346 42.1685C109.713 40.6493 108.371 37.3831 108.067 36.4716C107.687 35.3322 102.75 33.0533 95.9137 32.6735C90.4446 32.3697 86.6719 36.8514 85.2793 39.1301C85.2793 39.1301 85.8344 41.1955 86.7985 41.7887C87.7626 42.382 89.8369 42.1685 89.8369 42.1685L90.9763 41.0291V44.4473V57.3605C92.7487 57.7403 96.9771 58.4999 99.7117 58.4999Z" fill="white"/>
<path fill-rule="evenodd" clip-rule="evenodd" d="M109.717 42.3864L106.679 43.5833C106.243 45.9091 107.945 47.7569 109.215 48.8706C109.329 48.9698 109.494 48.9742 109.612 48.8822C111.377 47.5309 113.007 44.7103 114.155 41.6424L115.233 38.8888L113.467 38.5789C113.446 38.6557 113.425 38.7316 113.402 38.8057C112.615 41.3378 111.245 41.662 110.221 44.2119C109.863 43.5305 110.042 43.8467 109.717 42.3864Z" fill="#B45C27"/>
<path d="M114.804 36.3243C114.607 36.5188 114.303 36.5544 114.066 36.4107L113.444 36.0337C113.401 36.0077 113.363 35.9755 113.324 35.9441C113.204 35.8475 113.054 35.7942 112.898 35.7943C112.857 35.7943 112.815 35.7981 112.775 35.8054C112.528 35.8505 112.477 36.1474 112.579 36.3773L113.553 38.5884C113.617 38.734 113.736 38.8485 113.884 38.907L115.214 39.433C115.428 39.5175 115.671 39.4737 115.842 39.3199L117.238 38.0614C117.318 37.9843 117.368 37.8813 117.379 37.7715C117.389 37.6617 117.36 37.5524 117.296 37.4637L116.091 35.7881C116.052 35.7348 116.003 35.6907 115.945 35.6589C115.888 35.627 115.824 35.6081 115.758 35.6036C115.692 35.599 115.625 35.6088 115.563 35.6324C115.501 35.656 115.444 35.6928 115.397 35.7402L114.804 36.3243Z" fill="#B45C27"/>
<path fill-rule="evenodd" clip-rule="evenodd" d="M101.266 31.775L101.098 32.9918C101.062 33.2496 101.228 33.4944 101.486 33.5658L102.638 33.8829C103.478 37.3147 96.0471 37.7154 96.2644 32.3951H97.6602C97.9224 32.3951 98.1533 32.2244 98.2233 31.9779L98.482 31.0703L101.266 31.775Z" fill="#B45C27"/>
<path d="M83.8793 47.5227L85.8161 39.6558C85.9209 39.2302 86.4292 39.0537 86.7752 39.3228L89.068 41.1061C89.2946 41.2824 89.3662 41.5936 89.2393 41.8512L87.0138 46.3676C86.9067 46.585 86.9396 46.8453 87.0974 47.0292L91.3233 51.9531C91.3743 52.0126 91.4133 52.0814 91.4381 52.1557L91.8952 53.5253C92.026 53.9171 91.7343 54.322 91.3212 54.322H90.8803C90.726 54.322 90.5774 54.263 90.4651 54.157L84.0517 48.1075C83.893 47.9579 83.8272 47.7344 83.8793 47.5227Z" fill="#B45C27"/>
<path fill-rule="evenodd" clip-rule="evenodd" d="M102.134 41.56C102.895 41.2375 103.868 41.5731 104.225 42.4222C104.388 42.8136 104.384 43.2447 104.221 43.6364C104.055 44.0258 103.745 44.3298 103.349 44.4898C102.064 45.0125 99.8558 44.4479 99.7637 44.4226C99.6956 44.4063 99.6412 44.3572 99.6156 44.2953C99.5878 44.2312 99.5931 44.1587 99.6291 44.0997C99.6515 44.0626 99.8876 43.6719 100.255 43.197C100.266 43.1817 100.288 43.1798 100.303 43.1932C100.399 43.2714 100.504 43.3387 100.613 43.3995C100.631 43.4085 100.635 43.4283 100.624 43.4458C100.436 43.6876 100.283 43.9078 100.175 44.067C100.806 44.1982 102.291 44.4479 103.18 44.0851C103.774 43.8441 104.051 43.1767 103.814 42.5886C103.566 41.9762 102.864 41.7342 102.3 41.9668C101.935 42.114 101.568 42.4085 101.242 42.7365C101.236 42.7452 101.222 42.7473 101.212 42.7449C101.078 42.7103 100.953 42.6471 100.846 42.56C100.831 42.5488 100.829 42.5267 100.842 42.5137C101.228 42.1161 101.662 41.7586 102.134 41.56ZM100.865 40.3036C102.147 39.7786 104.348 40.3475 104.442 40.3685C104.508 40.3869 104.565 40.436 104.59 40.5001C104.616 40.562 104.611 40.6346 104.575 40.6935C104.554 40.7284 104.318 41.1236 103.951 41.5963C103.94 41.6115 103.92 41.6135 103.905 41.6023C103.809 41.5219 103.704 41.4524 103.595 41.396C103.577 41.387 103.571 41.3627 103.584 41.3497C103.77 41.1079 103.925 40.8877 104.03 40.7262C103.4 40.5951 101.919 40.3455 101.032 40.7082C100.443 40.9471 100.164 41.6167 100.403 42.2048C100.649 42.8172 101.348 43.0591 101.91 42.8287C102.275 42.6793 102.64 42.387 102.968 42.0568C102.977 42.0503 102.988 42.046 102.999 42.0484C103.133 42.083 103.257 42.1462 103.362 42.2333C103.377 42.2445 103.377 42.2665 103.363 42.2795C102.984 42.6795 102.546 43.0347 102.079 43.2355C101.32 43.5581 100.346 43.2203 99.9917 42.3712C99.8293 41.9798 99.8303 41.5487 99.996 41.157C100.162 40.7654 100.469 40.4635 100.865 40.3036Z" fill="#F58721"/>
<path d="M93.682 55.0818V52.8794C93.682 52.6092 93.5028 52.372 93.2429 52.2979L91.089 51.6833L90.1227 53.1842C89.9855 53.3974 90.0364 53.6803 90.2393 53.8323C90.6109 54.1107 90.4269 54.5451 89.9661 54.4878C89.2532 54.3991 88.5189 54.3808 88.3581 54.702C88.0659 55.2857 91.0252 56.3834 92.0454 56.5813C92.1221 56.5961 92.1999 56.5922 92.2746 56.5691C92.8052 56.4047 93.682 55.9293 93.682 55.0818Z" fill="#B45C27"/>
</svg>
