<svg width="118" height="118" viewBox="0 0 118 118" fill="none" xmlns="http://www.w3.org/2000/svg">
<g clip-path="url(#clip0_4466_15218)">
<path d="M38.1683 80.6301C53.2081 80.6275 75.3659 80.329 81.7583 80.2543C82.8463 80.2415 83.8826 79.7752 84.6098 78.9658L85.4455 78.0357C85.4738 78.0042 85.4908 77.9641 85.4938 77.9219L85.7271 74.6334C86.1606 68.5234 91.299 63.8206 97.4234 63.9287L98.6176 63.9498C104.238 64.049 108.742 68.6333 108.742 74.2544L108.611 76.4328C108.497 78.341 109.943 79.9843 111.85 80.1139C113.899 80.2531 115.622 78.5976 115.566 76.5448L115.482 73.5043V65.6752C115.482 64.6794 115.114 63.7188 114.448 62.9781L113.978 62.4547C113.636 62.0739 113.217 61.7639 112.848 61.4084C112.026 60.6155 110.943 59.2206 107.819 58.5253C104.405 57.7655 90.05 54.9086 86.358 54.1751C85.7818 54.0607 85.2505 53.8283 84.7748 53.4836C81.8787 51.3854 71.0067 43.5684 67.6285 42.0019C63.5846 40.1267 32.9181 40.1267 27.5261 41.2518C23.5137 42.0891 14.5248 47.5342 9.67299 50.7051C9.00529 51.1415 8.22882 51.3777 7.43117 51.3777H5.2845C5.03865 51.3777 7.38967 58.8625 8.91318 63.5939C9.18206 64.429 9.17342 65.3273 8.88686 66.1565L8.18988 68.1731C7.84603 69.168 7.05247 69.9421 6.04931 70.2611C4.31566 70.8123 3.29846 72.6673 3.57463 74.4654C3.58294 74.5196 3.59125 74.5743 3.59953 74.6296C3.7433 75.5896 4.08514 76.5922 4.44105 77.4328C4.90948 78.5391 5.97171 79.2354 7.15918 79.4177L14.8296 80.5951C14.9494 80.6135 15.0573 80.5208 15.0573 80.3997V76.3366C15.0573 70.0086 20.1872 64.8788 26.5152 64.8788C32.8431 64.8788 37.973 70.0086 37.973 76.3366V80.4319C37.973 80.5414 38.0588 80.6301 38.1683 80.6301Z" fill="hsl(0, 1000%, 25%)" stroke="#CD6D00" stroke-width="0.504397"/>
<path d="M68.5526 42.7941H67.7673C67.7673 42.7941 72.2528 46.5941 74.835 48.9116C77.8734 51.6385 81.9026 56.7769 81.9026 56.7769C81.9026 56.7769 83.3952 56.0572 84.2585 55.0291C84.9206 54.2405 84.2585 53.2812 84.2585 53.2812L68.5526 42.7941Z" fill="white"/>
<path d="M84.2862 69.9882C83.5847 71.3114 83.1409 72.9817 84.5213 72.9817H85.7431C86.5208 72.9817 87.158 72.4589 87.3926 71.6337C87.7565 70.3542 88.6495 69.012 87.4435 69.012H85.8223C85.1911 69.012 84.6069 69.3832 84.2862 69.9882Z" fill="#FFCF99" stroke="#CD6D00" stroke-width="0.504397"/>
<path d="M55.9843 60.274H80.3284C78.4412 56.0737 69.3343 46.2912 62.2317 44.2351L51.2725 43.6694L55.9843 60.274Z" fill="white"/>
<path d="M29.2843 59.4001L48.1314 60.274V55.9044L45.7755 43.6694C44.6522 43.7944 39.316 44.2351 35.2721 45.7352C31.2282 47.2353 30.2953 47.7879 29.2843 48.9129V59.4001Z" fill="white"/>
<path d="M26.9284 59.4001C26.9284 59.4001 25.4102 59.0701 24.5726 58.5262C23.5793 57.8812 22.4663 56.2361 22.4663 56.2361C22.4663 55.336 25.8051 50.912 26.9284 49.7869V59.4001Z" fill="white"/>
<path d="M48.9156 61.1467L48.9156 56.9519L38.486 56.9519L33.2098 55.9032L33.2098 60.098L48.9156 61.1467Z" fill="#FFAB4C" stroke="#CC6D00" stroke-width="0.630496"/>
<path d="M26.9301 50.6605C26.3018 51.4129 22.8784 54.6503 22.9689 55.7656C22.9767 55.8616 23.0175 55.9504 23.0452 56.0427L23.789 58.5259L25.3659 59.1108C25.865 59.296 26.3211 59.6621 26.8128 59.866C28.449 60.5444 32.4642 60.9624 33.1324 60.533C33.7309 60.1485 34.0488 59.3878 33.9276 58.6306L33.1763 53.9401C32.4271 48.9126 28.2153 49.1215 26.9301 50.6605Z" fill="#FFCF99" stroke="#CD6D00" stroke-width="0.504397"/>
<path d="M77.9712 60.2733L56.7683 60.2733L55.1977 56.7776L70.9036 56.7776L75.6153 56.7776L77.9712 60.2733Z" fill="#FFAB4C" stroke="#CC6D00" stroke-width="0.630496"/>
<path d="M74.0424 61.1469H81.11L79.5394 56.7773L77.7152 54.3196C77.7152 55.8444 75.922 56.662 74.7708 55.6621L74.0424 55.0294L73.2571 56.7773L74.4645 57.5904C75.8238 58.5058 75.5782 60.5752 74.0424 61.1469Z" fill="#CC6D00"/>
<path d="M73.8191 54.0302L73.2309 58.8653C73.1417 59.5988 72.6039 60.0894 71.9897 59.9969C71.3755 59.9044 70.9743 59.2723 71.0635 58.5388L71.6516 53.7037C71.7409 52.9702 72.2787 52.4796 72.8929 52.5722C73.507 52.6647 73.9083 53.2968 73.8191 54.0302Z" fill="#FFAB4C" stroke="#CC6D00" stroke-width="0.630496"/>
<path d="M54.1203 54.3701C53.5667 55.0331 53.4353 55.9801 53.7906 56.7464L55.9474 61.3981C56.3517 62.2702 57.3622 62.5664 58.1676 62.0489C58.7714 61.6609 59.0986 60.9111 58.9819 60.1826L58.075 54.5202C57.8046 52.832 55.8549 52.2929 54.7603 53.6037L54.1203 54.3701Z" fill="#FFCF99" stroke="#CD6D00" stroke-width="0.504397"/>
<path d="M34.8204 52.0696L34.7425 55.2684L36.7823 57.4485L37.3352 51.5721L34.8204 52.0696Z" fill="#B55A00"/>
<path d="M38.6587 52.398C38.1609 52.2808 36.8339 52.398 37.221 52.4571C37.8296 52.6345 37.6081 52.5163 38.1608 52.6345C38.3823 52.6937 38.548 52.6937 38.6587 52.6937C37.8296 54.5839 36.6683 54.4656 35.7275 53.6979C34.8975 53.0485 34.3448 51.6894 34.0126 49.5637L35.7275 47.437L38.1608 47.5759L38.9909 50.8626L38.4381 51.3357C38.5479 51.7486 38.6029 52.1034 38.6587 52.398Z" fill="#B55A00"/>
<path d="M38.2282 47.9422C37.88 47.9422 35.6166 49.2625 35.6166 49.2625L35.6166 50.5829L35.6166 51.9032C35.6166 52.3434 33.8756 52.7835 33.4403 52.3434C31.6993 50.5829 32.5698 49.9961 32.5698 49.2625C32.7149 48.9691 33.0051 48.2943 33.0051 47.9422C33.0051 47.5901 33.8756 46.9152 34.3109 46.6218C35.7617 46.7685 38.3153 45.7416 38.6635 45.7416C39.0987 45.7416 39.0987 47.9422 38.6635 47.9422L38.2282 47.9422Z" fill="#683808"/>
<ellipse cx="34.8423" cy="51.6782" rx="0.829717" ry="0.84801" fill="#B55A00"/>
<path d="M39.5 60.511C39.8332 60.1112 38.7241 54.7031 35.4621 54.7357L34.8208 55.2881C32.4363 57.6107 33.7518 59.4866 33.6791 63.7749L37.8735 63.6228C38.0214 62.8629 38.9372 61.1862 39.5 60.511Z" fill="white" stroke="#CC6D00" stroke-width="0.489438"/>
<path d="M39.4779 57.2486L38.7328 60.0632L36.746 59.4719L37.905 55.3445L39.4779 57.2486Z" fill="black"/>
<path d="M32.7966 61.6299L35.63 60.8065C36.0212 62.5085 36.147 63.2632 36.6107 64.7203L33.801 64.7979C33.1707 63.2155 33.3812 63.5221 32.7966 61.6299Z" fill="#B55A00"/>
<path d="M33.5509 61.3573C33.5509 61.3573 36.6577 61.7492 37.7359 61.3573C37.3174 58.1426 36.7986 54.7471 35.4554 54.736C33.4215 55.2537 32.1076 58.0888 33.5509 61.3573Z" fill="white" stroke="#CC6D00" stroke-width="0.489438"/>
<path d="M66.1498 62.2471C66.1498 62.2471 62.9269 62.2471 61.1715 62.2471C61.1715 62.2471 57.3881 56.3635 61.4967 55.0129L63.8147 55.9235C64.2051 56.5804 66.3437 57.2319 66.6476 58.6089C64.7436 61.672 66.1498 62.2471 66.1498 62.2471Z" fill="#89BAF3" stroke="#CC6D00" stroke-width="0.489438"/>
<path d="M63.9159 55.1324L60.6045 61.5896H63.088L65.5716 57.5538L63.9159 55.1324Z" fill="black"/>
<path d="M62.44 57.3296C62.9802 58.3992 64.8156 58.5044 65.3565 58.7928C66.0452 58.7928 66.2524 59.4586 68.8566 58.3256L70.6471 58.9827L72.2617 58.5449V56.6081L70.8876 56.9251L70.1099 56.4451L71.0051 56.069V55.3169L69.2147 56.069L69.0198 56.9251C67.8638 57.2537 67.8575 56.8697 65.8193 56.9521C65.5282 56.6644 64.334 56.2769 63.2794 55.9672L62.44 57.3296ZM59.6784 55.9241L59.2645 53.5234L60.8342 53.1923L61.579 54.8389L59.6784 55.9241Z" fill="#B55A00"/>
<path d="M63.7032 59.6483C63.7032 59.6483 65.024 57.4123 65.4106 56.2577C62.5967 54.5823 60.7238 54.2497 59.8235 55.3661C58.8288 57.3584 60.144 58.81 63.7032 59.6483Z" fill="#89BAF3" stroke="#CC6D00" stroke-width="0.489438"/>
<path d="M57.2215 50.5624C57.9445 52.4381 58.7204 53.4722 59.6744 53.8539C60.8447 54.3069 62.3235 52.9433 62.1335 51.8078C62.4048 51.6055 63.1082 51.1735 63.0056 50.9254C62.922 50.7235 62.2017 50.4277 62.1643 50.1011L62.522 47.8449L61.3425 46.7666L58.6085 48.1501L57.2215 50.5624Z" fill="#B55A00"/>
<path d="M59.0218 50.7622C59.0058 51.6574 58.8078 52.2604 58.43 52.4598C56.1827 52.536 56.2226 50.2992 56.2425 49.1799L56.2425 49.1797C56.2624 48.0605 57.1961 46.5055 57.9779 46.3237C60.797 45.6681 61.9106 46.1893 62.4525 47.2894C63.1794 48.7652 62.4226 48.9682 61.8608 48.9874C61.4113 49.0027 60.4784 48.4541 60.4784 48.4541C60.4784 48.4541 60.1721 49.2507 60.1454 50.7238C60.1353 51.2831 59.0418 49.6431 59.0218 50.7622Z" fill="#47280D"/>
<path d="M57.107 53.021C57.4313 54.0907 57.0764 54.5304 57.107 55.7409C57.1015 56.6831 57.567 57.4794 58.1878 57.7773C57.6777 57.97 57.2208 57.891 56.7256 57.8595C56.2178 57.738 55.7602 57.6599 55.3167 57.3568C54.5836 56.8817 54.1825 55.9053 54.1133 54.7391C53.8748 53.6005 53.7866 52.8155 53.8748 51.6965C54.1159 48.6377 55.8517 47.6897 57.0206 47.9711C57.8572 48.1726 56.9329 52.3981 57.107 53.021Z" fill="#47280D"/>
<path d="M56.5786 56.7863C56.1878 56.2139 56.0284 55.3653 56.0464 54.5114C56.0495 53.8832 56.1304 53.164 56.1343 52.535C56.1033 52.0001 56.1344 51.6139 55.5289 50.9517C55.6183 50.9482 55.4018 51.0002 55.5289 50.9517C53.5423 50.5378 55.0771 52.9662 55.1085 53.8627C55.1564 54.5348 55.1908 55.1164 55.3652 55.7408C55.5269 56.2753 55.778 56.8064 56.183 57.1554C56.3345 57.2859 56.4742 57.3272 56.6257 57.4578C57.0057 57.6285 57.5763 57.8831 58.0479 57.7363C57.8454 57.5618 57.5401 57.6149 57.2992 57.4863C57.008 57.3144 56.7553 57.0966 56.5786 56.7863Z" fill="#593012"/>
<path d="M56.0712 56.6631C55.9073 56.4442 55.8201 56.132 55.7329 55.8198C55.3601 54.3935 56.8261 51.2914 54.8672 51.116C54.8288 51.1619 54.5702 51.116 54.5702 51.116C53.7107 52.3484 54.1279 54.2011 54.3115 55.542C54.4081 56.2575 54.5831 56.8811 55.0759 57.2267C55.2785 57.4012 55.507 57.4415 55.748 57.5701C56.4457 57.7761 57.3459 58.1567 58.1363 57.7327C57.3256 57.3502 56.5373 57.4586 56.0712 56.6631Z" fill="#6B3918"/>
<ellipse cx="0.736164" cy="1.0786" rx="0.736164" ry="1.0786" transform="matrix(0.990044 -0.0338426 -0.017984 1.00958 58.2212 49.7654)" fill="#B55A00"/>
<path fill-rule="evenodd" clip-rule="evenodd" d="M47.3488 41.9207L50.4677 55.8603L51.2753 74.2368L38.7948 73.4867C38.763 73.3679 38.7292 73.2383 38.6929 73.0992C37.8895 70.0175 35.8606 62.2358 26.802 62.2358C24.5753 62.021 22.1067 59.4644 21.4341 57.6514C21.3212 57.347 21.1968 56.022 21.1212 55.8603C22.6992 51.4849 25.8552 42.7946 47.3488 41.9207ZM29.287 59.3992L48.1341 60.2732V55.9035L45.7782 43.6685C44.7262 43.7935 38.1636 44.2343 34.3764 45.7345C30.5892 47.2346 30.2338 47.787 29.287 48.9121V59.3992ZM26.802 59.3992C26.802 59.3992 25.32 59.1305 24.5753 58.5253C23.6823 57.7996 23.0047 55.9035 23.0047 55.9035C23.0047 55.0034 25.75 51.785 26.802 50.6599V59.3992Z" fill="#FF8800"/>
<path fill-rule="evenodd" clip-rule="evenodd" d="M55.2017 74.2368L81.1164 74.256C82.7996 69.7556 81.9017 60.2732 81.9017 60.2732C81.9017 60.2732 77.5805 54.6582 74.8341 51.5339C71.7861 48.0665 67.5456 44.0344 66.9811 43.6685C65.8239 42.9185 64.6252 42.7946 64.6252 42.7946L50.4677 41.9842L53.3081 55.8603L55.2017 74.2368ZM55.987 60.2732L78.7605 60.2732C76.9932 56.0728 70.1223 47.1643 63.2615 44.2343L52.0457 43.4843L55.3812 55.9035L55.987 60.2732Z" fill="#FF8800"/>
<path fill-rule="evenodd" clip-rule="evenodd" d="M47.3488 41.9207L50.4677 55.8603L51.2753 74.2368L38.7948 73.4867C38.763 73.3679 38.7292 73.2383 38.6929 73.0992C37.8895 70.0175 35.8606 62.2358 26.802 62.2358C24.5753 62.021 22.1067 59.4644 21.4341 57.6514C21.3212 57.347 21.1968 56.022 21.1212 55.8603C22.6992 51.4849 25.8552 42.7946 47.3488 41.9207ZM29.287 59.3992L48.1341 60.2732V55.9035L45.7782 43.6685C44.7262 43.7935 38.1636 44.2343 34.3764 45.7345C30.5892 47.2346 30.2338 47.787 29.287 48.9121V59.3992ZM26.802 59.3992C26.802 59.3992 25.32 59.1305 24.5753 58.5253C23.6823 57.7996 23.0047 55.9035 23.0047 55.9035C23.0047 55.0034 25.75 51.785 26.802 50.6599V59.3992Z" stroke="#CD6D00" stroke-width="0.504397" stroke-linejoin="round"/>
<path fill-rule="evenodd" clip-rule="evenodd" d="M55.2017 74.2368L81.1164 74.256C82.7996 69.7556 81.9017 60.2732 81.9017 60.2732C81.9017 60.2732 77.5805 54.6582 74.8341 51.5339C71.7861 48.0665 67.5456 44.0344 66.9811 43.6685C65.8239 42.9185 64.6252 42.7946 64.6252 42.7946L50.4677 41.9842L53.3081 55.8603L55.2017 74.2368ZM55.987 60.2732L78.7605 60.2732C76.9932 56.0728 70.1223 47.1643 63.2615 44.2343L52.0457 43.4843L55.3812 55.9035L55.987 60.2732Z" stroke="#CD6D00" stroke-width="0.504397" stroke-linejoin="round"/>
<path d="M6.28891 59.9851C4.79997 59.9851 3.59295 58.8098 3.59295 57.3599C3.59295 55.91 4.79997 54.7347 6.28891 54.7347C7.77784 54.7347 8.98486 55.91 8.98486 57.3599C8.98486 58.8098 7.77784 59.9851 6.28891 59.9851Z" fill="#FFE7CC" stroke="#CC6D00" stroke-width="0.504397"/>
<path d="M108.464 73.3285C108.695 74.1652 109.436 74.7602 110.302 74.8058L114.507 75.027C115.565 75.0827 116.453 74.2402 116.453 73.1812C116.453 72.4269 115.994 71.7483 115.295 71.4666L110.815 69.6624C109.265 69.0382 107.671 70.4609 108.116 72.0714L108.464 73.3285Z" fill="#FFCF99" stroke="#CD6D00" stroke-width="0.504397"/>
<path d="M37.1378 77.028C37.1378 77.9107 37.8534 78.6263 38.7361 78.6263H85.0131C85.8958 78.6263 86.6113 77.9107 86.6113 77.028C86.6113 76.1454 85.8958 75.4298 85.0131 75.4298L38.7361 75.4298C37.8534 75.4298 37.1378 76.1454 37.1378 77.028Z" fill="#FFCF99" stroke="#CD6D00" stroke-width="0.504397"/>
<path d="M1.79367 73.5843C1.79367 74.3128 2.29819 74.9441 3.00871 75.1048L14.0262 77.5962C15.0013 77.8167 15.929 77.0754 15.929 76.0757C15.929 75.3473 15.4244 74.7159 14.7139 74.5553L3.69638 72.0638C2.72133 71.8433 1.79367 72.5846 1.79367 73.5843Z" fill="#FFCF99" stroke="#CD6D00" stroke-width="0.504397"/>
<path d="M113.956 68.1517C115.445 68.1517 116.652 66.9763 116.652 65.5265C116.652 64.0766 115.445 62.9012 113.956 62.9012C112.467 62.9012 111.26 64.0766 111.26 65.5265C111.26 66.9763 112.467 68.1517 113.956 68.1517Z" fill="#FFE7CC" stroke="#CC6D00" stroke-width="0.504397"/>
<path d="M5.61171 60.7364V53.9858H8.68042C10.3532 53.9858 11.6776 55.4763 11.6776 57.3611C11.6776 59.2445 10.3532 60.7364 8.67927 60.7364H5.61171Z" fill="#FFAB4C" stroke="#CC6D00" stroke-width="0.504397"/>
<path d="M114.379 69.1406V61.3406H110.433C108.282 61.3406 106.579 63.0628 106.579 65.2406C106.579 67.4169 108.282 69.1406 110.435 69.1406H114.379Z" fill="#FFAB4C" stroke="#CC6D00" stroke-width="0.504397"/>
<path d="M8.31478 60.7361H23.8165" stroke="#CD6D00" stroke-width="0.504397"/>
<path d="M26.5117 62.2363H8.31401" stroke="#CD6D00" stroke-width="0.504397"/>
<path d="M16.7197 70.7597L8.0815 68.1379" stroke="#CD6D00" stroke-width="0.504397"/>
<path d="M107.36 62.9002L82.6852 57.6519C83.4705 57.6519 85.8263 55.904 85.8263 54.1562" stroke="#CD6D00" stroke-width="0.504397" stroke-linejoin="round"/>
<path d="M98.2257 83.2056C93.6716 83.2056 89.951 79.49 89.951 74.93C89.951 70.3711 93.6726 66.6555 98.2257 66.6555C102.781 66.6555 106.501 70.3711 106.501 74.931C106.501 79.49 102.78 83.2056 98.2257 83.2056ZM98.2257 79.0965C100.503 79.0965 102.391 77.2377 102.391 74.93C102.391 72.6224 100.503 70.7646 98.2257 70.7646C95.9486 70.7646 94.0603 72.6234 94.0603 74.93C94.0603 77.2387 95.8935 79.0965 98.2257 79.0965Z" fill="#FFCF99" stroke="#CC6D00" stroke-width="0.630496"/>
<path d="M98.2247 77.2946C99.5304 77.2946 100.589 76.2361 100.589 74.9303C100.589 73.6245 99.5304 72.566 98.2247 72.566C96.9189 72.566 95.8604 73.6245 95.8604 74.9303C95.8604 76.2361 96.9189 77.2946 98.2247 77.2946Z" fill="#FFAB4C" stroke="#CC6D00" stroke-width="0.630496"/>
<path d="M26.598 83.2056C22.044 83.2056 18.3234 79.49 18.3234 74.93C18.3234 70.3711 22.0449 66.6555 26.598 66.6555C31.1529 66.6555 34.8735 70.3711 34.8735 74.931C34.8735 79.49 31.152 83.2056 26.598 83.2056ZM26.598 79.0965C28.875 79.0965 30.7633 77.2377 30.7633 74.93C30.7633 72.6224 28.875 70.7646 26.598 70.7646C24.321 70.7646 22.4326 72.6234 22.4326 74.93C22.4326 77.2387 24.2658 79.0965 26.598 79.0965Z" fill="#FFCF99" stroke="#CC6D00" stroke-width="0.630496"/>
<path d="M26.597 77.2946C27.9027 77.2946 28.9613 76.2361 28.9613 74.9303C28.9613 73.6245 27.9027 72.566 26.597 72.566C25.2912 72.566 24.2327 73.6245 24.2327 74.9303C24.2327 76.2361 25.2912 77.2946 26.597 77.2946Z" fill="#FFAB4C" stroke="#CC6D00" stroke-width="0.630496"/>
</g>
<defs>
<clipPath id="clip0_4466_15218">
<rect width="117" height="117" fill="white" transform="translate(0.5 0.5)"/>
</clipPath>
</defs>
</svg>
