<svg width="76" height="75" viewBox="0 0 76 75" fill="none" xmlns="http://www.w3.org/2000/svg">
<g clip-path="url(#clip0_3089_11653)">
<rect x="0.648438" y="0.196045" width="74.7012" height="74.7012" rx="6.96514" fill="hsl(0, 100%, 25%)"/>
<path d="M38.5851 58.1532L21.8924 44.6759C4.71137 30.0228 21.0209 4.34572 38.5851 20.7552C56.1492 4.34572 72.4587 30.0228 55.2777 44.6759L38.5851 58.1532Z" fill="#FFCF99" stroke="#CC6D00" stroke-width="0.435321"/>
<path fill-rule="evenodd" clip-rule="evenodd" d="M38.7333 21.1616C34.3282 16.9458 30.2157 14.8008 26.389 15.0992C22.5633 15.3976 19.3467 17.5724 17.2487 20.7402C13.0523 27.0767 13.3062 37.4011 21.9541 44.9563L21.9619 44.963L38.7333 58.8339C38.7333 58.8339 41.5889 59.3509 42.8808 58.34C44.2303 57.284 43.8696 54.0881 43.8696 54.0881C45.0323 54.998 47.5281 56.9336 49.9671 55.7141C52.8126 52.0556 50.0542 51.9043 49.701 50.5598L52.1909 52.8441C53.5204 54.0637 55.5707 53.9612 56.7758 52.6148C57.9432 51.3105 57.8962 49.3049 56.6691 48.0585L56.1049 47.4856C57.1718 47.714 58.3264 47.4065 59.1531 46.5668C60.4561 45.2434 60.4549 43.0972 59.1504 41.7753L45.4044 27.8456L45.4231 27.8284L41.4306 27.2591L38.7333 28.4786L36.9591 30.1046L34.5201 31.3241L32.4876 30.9176L30.4551 29.6981L38.7333 21.1616Z" fill="#FF8800"/>
<path fill-rule="evenodd" clip-rule="evenodd" d="M38.9919 20.6166C34.5868 16.388 30.2157 14.7999 26.389 15.0992C22.5633 15.3985 19.3467 17.5798 17.2487 20.7572C13.0523 27.1129 13.3062 37.4684 21.9541 45.0465L21.9619 45.0532L38.7333 58.966L44.2761 54.4945C47.1216 57.7465 48.8676 56.8528 50.0814 55.9967C51.3093 55.1307 51.7779 53.6167 51.4248 52.2682L52.1909 52.9581C53.5204 54.1814 55.5707 54.0786 56.7758 52.7281C57.9432 51.4199 57.8962 49.4083 56.6691 48.1581L56.1049 47.5834C57.1718 47.8125 58.3264 47.5041 59.1531 46.6619C60.4561 45.3344 60.4549 43.1818 59.1504 41.8559L45.4044 27.8841L45.4231 27.8669L42.2436 27.6655L39.1663 28.1441L34.5201 31.324L32.0811 30.9852L30.5411 30.1511L30.4551 29.2915L34.0606 25.633L39.0029 20.6272L38.9919 20.6166ZM44.3969 27.8558L39.8046 27.6655L34.9266 31.324H32.7064L30.4551 30.1045V29.2915L38.4637 21.1652C34.1745 17.0522 30.0068 15.5867 26.4467 15.8652C22.8826 16.144 19.8624 18.1752 17.8745 21.186C13.8998 27.2058 14.0767 37.1273 22.4421 44.4607L38.7333 57.9752L43.6809 53.9975L39.6248 50.3163C39.464 50.1814 39.441 49.9393 39.5734 49.7756C39.7058 49.6118 39.9434 49.5884 40.1042 49.7232L46.092 54.9019L46.6963 55.3914L50.5946 52.1575L50.2083 51.4873C50.1361 51.3959 50.057 51.3081 49.9711 51.2245L42.6206 44.1515C42.4714 44.0065 42.4643 43.7663 42.6046 43.6123C42.745 43.4584 42.9806 43.4478 43.1337 43.5886L50.9934 50.836L51.5596 51.357L53.8788 46.4019L53.3428 45.8559L45.6308 37.9992C45.4844 37.8502 45.4834 37.6088 45.6284 37.4584C45.7735 37.308 46.0104 37.3048 46.1593 37.4513L54.0811 45.2434L54.6275 45.7808L55.0038 46.151C56.0161 47.1467 57.6249 47.1323 58.6199 46.1186C59.6281 45.0915 59.6272 43.4258 58.6178 42.3997L44.4999 28.05C44.4456 27.9948 44.4113 27.927 44.3969 27.8558ZM53.8788 46.4019L51.5596 51.357L52.6964 52.3879C53.7175 53.3275 55.2923 53.2485 56.2178 52.2113C57.1144 51.2066 57.0783 49.6615 56.1358 48.7013L53.8788 46.4019ZM50.5946 52.1575L46.6963 55.3914C47.5856 55.9961 48.7585 55.9953 49.6522 55.3651C50.7018 54.6247 51.0376 53.2751 50.5946 52.1575Z" fill="#CC6D00"/>
<rect x="26.7249" y="34.3651" width="6.42077" height="13.2769" rx="3.21038" transform="rotate(46.0373 26.7249 34.3651)" fill="#FFCF99" stroke="#CC6D00" stroke-width="0.435321"/>
<rect x="32.9788" y="37.34" width="6.42077" height="16.6733" rx="3.21038" transform="rotate(46.0373 32.9788 37.34)" fill="#FFCF99" stroke="#CC6D00" stroke-width="0.435321"/>
<rect x="45.5217" y="55.6503" width="6.42077" height="10.7201" rx="3.21038" transform="rotate(129.458 45.5217 55.6503)" fill="#FF8800" stroke="#CC6D00" stroke-width="0.435321"/>
<rect x="36.5452" y="42.9264" width="6.42077" height="14.2168" rx="3.21038" transform="rotate(46.0373 36.5452 42.9264)" fill="#FFCF99" stroke="#CC6D00" stroke-width="0.435321"/>
<rect x="40.1722" y="48.3197" width="6.42077" height="11.8523" rx="3.21038" transform="rotate(46.0373 40.1722 48.3197)" fill="#FFCF99" stroke="#CC6D00" stroke-width="0.435321"/>
<path d="M39.4585 19.9419L30.3421 29.3549C30.1787 29.5237 30.1772 29.7923 30.3545 29.9465C31.6478 31.0711 34.3313 32.3341 36.8238 30.0464C40.2113 26.9373 41.7169 27.326 43.5988 27.7146C45.4808 28.1032 48.1155 26.1601 50.3738 23.4396" stroke="#CC6D00" stroke-width="0.435321" stroke-linecap="round" stroke-linejoin="round"/>
</g>
<defs>
<clipPath id="clip0_3089_11653">
<rect x="0.648438" y="0.196045" width="74.7012" height="74.7012" rx="6.96514" fill="white"/>
</clipPath>
</defs>
</svg>
