<svg width="74" height="75" viewBox="0 0 74 75" fill="none" xmlns="http://www.w3.org/2000/svg">
<g clip-path="url(#clip0_3089_11645)">
<rect y="0.196045" width="74.0006" height="74.0006" rx="6.89982" fill="hsl(0, 100%, 25%)"/>
<path d="M56.7033 29.1547V15.4566C56.7033 14.83 56.0247 14.4233 55.4622 14.6995C53.5368 15.6453 49.7498 17.3072 46.8522 17.3421C43.3007 17.3849 38.4332 15.0156 37.002 14.276C36.7454 14.1434 36.4396 14.1463 36.1862 14.285C34.8418 15.0211 30.4217 17.2996 27.1499 17.3421C24.258 17.3796 20.4804 15.6934 18.5514 14.723C17.9872 14.4393 17.2988 14.8466 17.2988 15.4781V29.5508C17.2988 40.1449 22.5395 50.053 31.2966 56.0153L36.1381 59.3117C36.4121 59.4982 36.7714 59.5017 37.0489 59.3204L42.1932 55.9609C51.246 50.0489 56.7033 39.967 56.7033 29.1547Z" fill="#FFCF99" stroke="#CC6D00" stroke-width="0.862478" stroke-linecap="round"/>
<path d="M52.1887 27.2357V20.7961C52.1887 20.1686 51.5083 19.7602 50.9428 20.032C49.3918 20.7772 46.6916 21.913 44.5951 21.9384C41.9311 21.9707 38.3064 20.2332 37.0969 19.6117C36.8389 19.4792 36.532 19.484 36.2772 19.6226C35.1398 20.2413 31.8567 21.9065 29.408 21.9384C27.3172 21.9657 24.6257 20.8181 23.0727 20.0552C22.5052 19.7764 21.8145 20.1854 21.8145 20.8177V27.6321C21.8145 38.1993 27.0287 48.0859 35.7494 54.0537L36.2311 54.3834C36.5058 54.5714 36.8669 54.5748 37.1452 54.3922L37.7413 54.0009C46.758 48.0823 52.1887 38.0215 52.1887 27.2357Z" fill="#FF8800" stroke="#CA6E28" stroke-width="0.431239" stroke-linecap="round"/>
<path d="M33.8932 37.0498L34.0208 37.2104L34.1876 37.091L43.5377 30.3982C44.4818 29.7224 45.795 29.9399 46.4708 30.884C47.1466 31.8281 46.9291 33.1413 45.985 33.8171L35.2934 41.4702C34.126 42.3058 32.5144 42.0746 31.6258 40.9555L28.4529 36.96C27.7309 36.0508 27.8826 34.7284 28.7919 34.0063C29.7011 33.2843 31.0235 33.4361 31.7456 34.3453L33.8932 37.0498Z" fill="#FFCF99" stroke="#CC6D00" stroke-width="0.431239"/>
</g>
<defs>
<clipPath id="clip0_3089_11645">
<rect y="0.196045" width="74.0006" height="74.0006" rx="6.89982" fill="white"/>
</clipPath>
</defs>
</svg>
